M48
; DRILL file KiCad 10.0.0 date 2026-03-29T11:58:58
; FORMAT={3:3/ absolute / metric / keep zeros}
; #@! TF.CreationDate,2026-03-29T11:58:58+05:30
; #@! TF.GenerationSoftware,Kicad,Pcbnew,10.0.0
; #@! TF.FileFunction,Plated,1,2,PTH
FMAT,2
METRIC
; #@! TA.AperFunction,Plated,PTH,ComponentDrill
T1C1.000
; #@! TA.AperFunction,Plated,PTH,ComponentDrill
T2C1.500
%
G90
G05
T1
X097500Y-099460
X097500Y-102000
X097500Y-104540
X097500Y-107080
X097500Y-109620
X097500Y-112160
X097500Y-114700
X112750Y-099460
X112750Y-102000
X112750Y-104540
X112750Y-107080
X112750Y-109620
X112750Y-112160
X112750Y-114700
X120000Y-100420
X120000Y-102960
X120000Y-105500
X120000Y-108040
X162750Y-106000
X162750Y-108500
X162750Y-111000
X177250Y-106000
X177250Y-111000
T2
X115000Y-125000
X121350Y-122460
X134000Y-125000
X140350Y-122460
X153000Y-125000
X159350Y-122460
T2
X169600Y-102900G85X170900Y-102900
G05
X169600Y-114100G85X170900Y-114100
G05
M30
