%TF.GenerationSoftware,KiCad,Pcbnew,10.0.0*%
%TF.CreationDate,2026-03-29T11:59:05+05:30*%
%TF.ProjectId,macropadv2pcb-2,6d616372-6f70-4616-9476-327063622d32,rev?*%
%TF.SameCoordinates,Original*%
%TF.FileFunction,Copper,L1,Top*%
%TF.FilePolarity,Positive*%
%FSLAX46Y46*%
G04 Gerber Fmt 4.6, Leading zero omitted, Abs format (unit mm)*
G04 Created by KiCad (PCBNEW 10.0.0) date 2026-03-29 11:59:05*
%MOMM*%
%LPD*%
G01*
G04 APERTURE LIST*
G04 Aperture macros list*
%AMRoundRect*
0 Rectangle with rounded corners*
0 $1 Rounding radius*
0 $2 $3 $4 $5 $6 $7 $8 $9 X,Y pos of 4 corners*
0 Add a 4 corners polygon primitive as box body*
4,1,4,$2,$3,$4,$5,$6,$7,$8,$9,$2,$3,0*
0 Add four circle primitives for the rounded corners*
1,1,$1+$1,$2,$3*
1,1,$1+$1,$4,$5*
1,1,$1+$1,$6,$7*
1,1,$1+$1,$8,$9*
0 Add four rect primitives between the rounded corners*
20,1,$1+$1,$2,$3,$4,$5,0*
20,1,$1+$1,$4,$5,$6,$7,0*
20,1,$1+$1,$6,$7,$8,$9,0*
20,1,$1+$1,$8,$9,$2,$3,0*%
G04 Aperture macros list end*
%TA.AperFunction,SMDPad,CuDef*%
%ADD10RoundRect,0.090000X-0.660000X-0.360000X0.660000X-0.360000X0.660000X0.360000X-0.660000X0.360000X0*%
%TD*%
%TA.AperFunction,ComponentPad*%
%ADD11C,2.200000*%
%TD*%
%TA.AperFunction,ComponentPad*%
%ADD12R,3.500000X1.700000*%
%TD*%
%TA.AperFunction,ComponentPad*%
%ADD13O,3.600000X1.700000*%
%TD*%
%TA.AperFunction,ComponentPad*%
%ADD14O,3.700000X1.700000*%
%TD*%
%TA.AperFunction,ComponentPad*%
%ADD15RoundRect,0.170000X0.680000X-0.680000X0.680000X0.680000X-0.680000X0.680000X-0.680000X-0.680000X0*%
%TD*%
%TA.AperFunction,ComponentPad*%
%ADD16C,1.700000*%
%TD*%
%TA.AperFunction,ComponentPad*%
%ADD17R,2.000000X2.000000*%
%TD*%
%TA.AperFunction,ComponentPad*%
%ADD18C,2.000000*%
%TD*%
%TA.AperFunction,ComponentPad*%
%ADD19R,3.200000X2.000000*%
%TD*%
%TA.AperFunction,Conductor*%
%ADD20C,0.200000*%
%TD*%
G04 APERTURE END LIST*
D10*
%TO.P,D1,1,VDD_1*%
%TO.N,VCC*%
X100500000Y-126000000D03*
%TO.P,D1,2,DOUT_2*%
%TO.N,Net-(D1-DOUT)*%
X100500000Y-129300000D03*
%TO.P,D1,3,VSS_3*%
%TO.N,GND*%
X105400000Y-129300000D03*
%TO.P,D1,4,DIN_4*%
%TO.N,Net-(D1-DIN)*%
X105400000Y-126000000D03*
%TD*%
D11*
%TO.P,SW1,1,1_1*%
%TO.N,Net-(U1-PA02_A0_D0)*%
X121350000Y-122460000D03*
%TO.P,SW1,2,2_2*%
%TO.N,GND*%
X115000000Y-125000000D03*
%TD*%
%TO.P,SW3,1,1_1*%
%TO.N,Net-(U1-PA10_A2_D2)*%
X159350000Y-122460000D03*
%TO.P,SW3,2,2_2*%
%TO.N,GND*%
X153000000Y-125000000D03*
%TD*%
D10*
%TO.P,D2,1,VDD_1*%
%TO.N,VCC*%
X170600000Y-127850000D03*
%TO.P,D2,2,DOUT_2*%
%TO.N,Net-(D2-DOUT)*%
X170600000Y-131150000D03*
%TO.P,D2,3,VSS_3*%
%TO.N,GND*%
X175500000Y-131150000D03*
%TO.P,D2,4,DIN_4*%
%TO.N,Net-(D1-DOUT)*%
X175500000Y-127850000D03*
%TD*%
%TO.P,D3,1,VDD_1*%
%TO.N,VCC*%
X134550000Y-113350000D03*
%TO.P,D3,2,DOUT_2*%
%TO.N,unconnected-(D3-DOUT-Pad2)*%
X134550000Y-116650000D03*
%TO.P,D3,3,VSS_3*%
%TO.N,GND*%
X139450000Y-116650000D03*
%TO.P,D3,4,DIN_4*%
%TO.N,Net-(D2-DOUT)*%
X139450000Y-113350000D03*
%TD*%
D12*
%TO.P,U1,1,PA02_A0_D0_1*%
%TO.N,Net-(U1-PA02_A0_D0)*%
X96500000Y-99460000D03*
D13*
%TO.P,U1,2,PA4_A1_D1_2*%
%TO.N,Net-(U1-PA4_A1_D1)*%
X96500000Y-102000000D03*
%TO.P,U1,3,PA10_A2_D2_3*%
%TO.N,Net-(U1-PA10_A2_D2)*%
X96500000Y-104540000D03*
%TO.P,U1,4,PA11_A3_D3_4*%
%TO.N,unconnected-(U1-PA11_A3_D3-Pad4)*%
X96500000Y-107080000D03*
%TO.P,U1,5,PA8_A4_D4_SDA_5*%
%TO.N,Net-(U1-PA8_A4_D4_SDA)*%
X96500000Y-109620000D03*
%TO.P,U1,6,PA9_A5_D5_SCL_6*%
%TO.N,Net-(U1-PA9_A5_D5_SCL)*%
X96500000Y-112160000D03*
%TO.P,U1,7,PB08_A6_D6_TX_7*%
%TO.N,unconnected-(U1-PB08_A6_D6_TX-Pad7)*%
X96500000Y-114700000D03*
%TO.P,U1,8,PB09_A7_D7_RX_8*%
%TO.N,Net-(U1-PB09_A7_D7_RX)*%
X113750000Y-114700000D03*
%TO.P,U1,9,PA7_A8_D8_SCK_9*%
%TO.N,Net-(U1-PA7_A8_D8_SCK)*%
X113750000Y-112160000D03*
%TO.P,U1,10,PA5_A9_D9_MISO_10*%
%TO.N,unconnected-(U1-PA5_A9_D9_MISO-Pad10)*%
X113750000Y-109620000D03*
D14*
%TO.P,U1,11,PA6_A10_D10_MOSI_11*%
%TO.N,Net-(D1-DIN)*%
X113750000Y-107080000D03*
%TO.P,U1,12,3V3_12*%
%TO.N,unconnected-(U1-3V3-Pad12)*%
X113750000Y-104540000D03*
%TO.P,U1,13,GND_13*%
%TO.N,GND*%
X113750000Y-102000000D03*
%TO.P,U1,14,5V_14*%
%TO.N,VCC*%
X113750000Y-99460000D03*
%TD*%
D15*
%TO.P,U2,1,GND_1*%
%TO.N,GND*%
X120000000Y-108040000D03*
D16*
%TO.P,U2,2,VCC_2*%
%TO.N,VCC*%
X120000000Y-105500000D03*
%TO.P,U2,3,SCL_3*%
%TO.N,Net-(U1-PA9_A5_D5_SCL)*%
X120000000Y-102960000D03*
%TO.P,U2,4,SDA_4*%
%TO.N,Net-(U1-PA8_A4_D4_SDA)*%
X120000000Y-100420000D03*
%TD*%
D11*
%TO.P,SW2,1,1_1*%
%TO.N,Net-(U1-PA4_A1_D1)*%
X140350000Y-122460000D03*
%TO.P,SW2,2,2_2*%
%TO.N,GND*%
X134000000Y-125000000D03*
%TD*%
D17*
%TO.P,SW4,A,A_A*%
%TO.N,Net-(U1-PA7_A8_D8_SCK)*%
X162750000Y-106000000D03*
D18*
%TO.P,SW4,B,B_B*%
%TO.N,Net-(U1-PB09_A7_D7_RX)*%
X162750000Y-111000000D03*
%TO.P,SW4,C,C_C*%
%TO.N,GND*%
X162750000Y-108500000D03*
D19*
%TO.P,SW4,MP*%
%TO.N,N/C*%
X170250000Y-102900000D03*
X170250000Y-114100000D03*
D18*
%TO.P,SW4,S1,S1_S1*%
%TO.N,unconnected-(SW4-PadS1)*%
X177250000Y-111000000D03*
%TO.P,SW4,S2,S2_S2*%
%TO.N,unconnected-(SW4-PadS2)*%
X177250000Y-106000000D03*
%TD*%
%TO.N,Net-(D1-DOUT)*%
D20*
X103100000Y-131900000D02*
X100500000Y-129300000D01*
X175500000Y-127850000D02*
X171450000Y-131900000D01*
X171450000Y-131900000D02*
X103100000Y-131900000D01*
%TO.N,GND*%
X105400000Y-129300000D02*
X109700000Y-125000000D01*
X139450000Y-116550000D02*
X139500000Y-116500000D01*
X160750000Y-123039899D02*
X158789899Y-125000000D01*
X115000000Y-125000000D02*
X134000000Y-125000000D01*
X112750000Y-102000000D02*
X113960000Y-102000000D01*
X139450000Y-116650000D02*
X155519899Y-116650000D01*
X155519899Y-116650000D02*
X160750000Y-121880101D01*
X134000000Y-125000000D02*
X153000000Y-125000000D01*
X160750000Y-121880101D02*
X160750000Y-123039899D01*
X109700000Y-125000000D02*
X115000000Y-125000000D01*
X158789899Y-125000000D02*
X153000000Y-125000000D01*
X113960000Y-102000000D02*
X120000000Y-108040000D01*
%TO.N,Net-(U1-PA02_A0_D0)*%
X117460000Y-122460000D02*
X121350000Y-122460000D01*
X97960000Y-99460000D02*
X111000000Y-112500000D01*
X97500000Y-99460000D02*
X97960000Y-99460000D01*
X111000000Y-116000000D02*
X117460000Y-122460000D01*
X111000000Y-112500000D02*
X111000000Y-116000000D01*
%TO.N,Net-(U1-PA10_A2_D2)*%
X133465964Y-121060000D02*
X157950000Y-121060000D01*
X130665964Y-123860000D02*
X133465964Y-121060000D01*
X157950000Y-121060000D02*
X159350000Y-122460000D01*
X97500000Y-104540000D02*
X116820000Y-123860000D01*
X116820000Y-123860000D02*
X130665964Y-123860000D01*
%TO.N,Net-(D2-DOUT)*%
X152800000Y-113350000D02*
X139450000Y-113350000D01*
X170600000Y-131150000D02*
X152800000Y-113350000D01*
%TO.N,Net-(U1-PA4_A1_D1)*%
X94400000Y-116574036D02*
X97325964Y-119500000D01*
X111894314Y-119500000D02*
X116814415Y-124420101D01*
X97500000Y-102000000D02*
X96463654Y-102000000D01*
X132600000Y-124420101D02*
X134560101Y-122460000D01*
X97325964Y-119500000D02*
X111894314Y-119500000D01*
X96463654Y-102000000D02*
X94400000Y-104063654D01*
X94400000Y-104063654D02*
X94400000Y-116574036D01*
X116814415Y-124420101D02*
X132600000Y-124420101D01*
X134560101Y-122460000D02*
X140350000Y-122460000D01*
%TO.N,Net-(U1-PA7_A8_D8_SCK)*%
X162750000Y-106000000D02*
X156590000Y-112160000D01*
X156590000Y-112160000D02*
X112750000Y-112160000D01*
%TO.N,Net-(U1-PB09_A7_D7_RX)*%
X114800000Y-114700000D02*
X112750000Y-114700000D01*
X162750000Y-111000000D02*
X161190000Y-112560000D01*
X161190000Y-112560000D02*
X116940000Y-112560000D01*
X116940000Y-112560000D02*
X114800000Y-114700000D01*
%TD*%
M02*
