%TF.GenerationSoftware,KiCad,Pcbnew,10.0.0*%
%TF.CreationDate,2026-03-29T11:59:05+05:30*%
%TF.ProjectId,macropadv2pcb-2,6d616372-6f70-4616-9476-327063622d32,rev?*%
%TF.SameCoordinates,Original*%
%TF.FileFunction,Legend,Top*%
%TF.FilePolarity,Positive*%
%FSLAX46Y46*%
G04 Gerber Fmt 4.6, Leading zero omitted, Abs format (unit mm)*
G04 Created by KiCad (PCBNEW 10.0.0) date 2026-03-29 11:59:05*
%MOMM*%
%LPD*%
G01*
G04 APERTURE LIST*
%ADD10C,0.150000*%
%ADD11C,0.101600*%
%ADD12C,0.120000*%
%ADD13C,0.127000*%
%ADD14C,0.254000*%
%ADD15C,0.025400*%
G04 APERTURE END LIST*
D10*
X102211905Y-124604819D02*
X102211905Y-123604819D01*
X102211905Y-123604819D02*
X102450000Y-123604819D01*
X102450000Y-123604819D02*
X102592857Y-123652438D01*
X102592857Y-123652438D02*
X102688095Y-123747676D01*
X102688095Y-123747676D02*
X102735714Y-123842914D01*
X102735714Y-123842914D02*
X102783333Y-124033390D01*
X102783333Y-124033390D02*
X102783333Y-124176247D01*
X102783333Y-124176247D02*
X102735714Y-124366723D01*
X102735714Y-124366723D02*
X102688095Y-124461961D01*
X102688095Y-124461961D02*
X102592857Y-124557200D01*
X102592857Y-124557200D02*
X102450000Y-124604819D01*
X102450000Y-124604819D02*
X102211905Y-124604819D01*
X103735714Y-124604819D02*
X103164286Y-124604819D01*
X103450000Y-124604819D02*
X103450000Y-123604819D01*
X103450000Y-123604819D02*
X103354762Y-123747676D01*
X103354762Y-123747676D02*
X103259524Y-123842914D01*
X103259524Y-123842914D02*
X103164286Y-123890533D01*
X99178571Y-126412295D02*
X98721428Y-126412295D01*
X98950000Y-126412295D02*
X98950000Y-125612295D01*
X98950000Y-125612295D02*
X98873809Y-125726580D01*
X98873809Y-125726580D02*
X98797619Y-125802771D01*
X98797619Y-125802771D02*
X98721428Y-125840866D01*
X120016667Y-122867200D02*
X120159524Y-122914819D01*
X120159524Y-122914819D02*
X120397619Y-122914819D01*
X120397619Y-122914819D02*
X120492857Y-122867200D01*
X120492857Y-122867200D02*
X120540476Y-122819580D01*
X120540476Y-122819580D02*
X120588095Y-122724342D01*
X120588095Y-122724342D02*
X120588095Y-122629104D01*
X120588095Y-122629104D02*
X120540476Y-122533866D01*
X120540476Y-122533866D02*
X120492857Y-122486247D01*
X120492857Y-122486247D02*
X120397619Y-122438628D01*
X120397619Y-122438628D02*
X120207143Y-122391009D01*
X120207143Y-122391009D02*
X120111905Y-122343390D01*
X120111905Y-122343390D02*
X120064286Y-122295771D01*
X120064286Y-122295771D02*
X120016667Y-122200533D01*
X120016667Y-122200533D02*
X120016667Y-122105295D01*
X120016667Y-122105295D02*
X120064286Y-122010057D01*
X120064286Y-122010057D02*
X120111905Y-121962438D01*
X120111905Y-121962438D02*
X120207143Y-121914819D01*
X120207143Y-121914819D02*
X120445238Y-121914819D01*
X120445238Y-121914819D02*
X120588095Y-121962438D01*
X120921429Y-121914819D02*
X121159524Y-122914819D01*
X121159524Y-122914819D02*
X121350000Y-122200533D01*
X121350000Y-122200533D02*
X121540476Y-122914819D01*
X121540476Y-122914819D02*
X121778572Y-121914819D01*
X122683333Y-122914819D02*
X122111905Y-122914819D01*
X122397619Y-122914819D02*
X122397619Y-121914819D01*
X122397619Y-121914819D02*
X122302381Y-122057676D01*
X122302381Y-122057676D02*
X122207143Y-122152914D01*
X122207143Y-122152914D02*
X122111905Y-122200533D01*
X158016667Y-122867200D02*
X158159524Y-122914819D01*
X158159524Y-122914819D02*
X158397619Y-122914819D01*
X158397619Y-122914819D02*
X158492857Y-122867200D01*
X158492857Y-122867200D02*
X158540476Y-122819580D01*
X158540476Y-122819580D02*
X158588095Y-122724342D01*
X158588095Y-122724342D02*
X158588095Y-122629104D01*
X158588095Y-122629104D02*
X158540476Y-122533866D01*
X158540476Y-122533866D02*
X158492857Y-122486247D01*
X158492857Y-122486247D02*
X158397619Y-122438628D01*
X158397619Y-122438628D02*
X158207143Y-122391009D01*
X158207143Y-122391009D02*
X158111905Y-122343390D01*
X158111905Y-122343390D02*
X158064286Y-122295771D01*
X158064286Y-122295771D02*
X158016667Y-122200533D01*
X158016667Y-122200533D02*
X158016667Y-122105295D01*
X158016667Y-122105295D02*
X158064286Y-122010057D01*
X158064286Y-122010057D02*
X158111905Y-121962438D01*
X158111905Y-121962438D02*
X158207143Y-121914819D01*
X158207143Y-121914819D02*
X158445238Y-121914819D01*
X158445238Y-121914819D02*
X158588095Y-121962438D01*
X158921429Y-121914819D02*
X159159524Y-122914819D01*
X159159524Y-122914819D02*
X159350000Y-122200533D01*
X159350000Y-122200533D02*
X159540476Y-122914819D01*
X159540476Y-122914819D02*
X159778572Y-121914819D01*
X160064286Y-121914819D02*
X160683333Y-121914819D01*
X160683333Y-121914819D02*
X160350000Y-122295771D01*
X160350000Y-122295771D02*
X160492857Y-122295771D01*
X160492857Y-122295771D02*
X160588095Y-122343390D01*
X160588095Y-122343390D02*
X160635714Y-122391009D01*
X160635714Y-122391009D02*
X160683333Y-122486247D01*
X160683333Y-122486247D02*
X160683333Y-122724342D01*
X160683333Y-122724342D02*
X160635714Y-122819580D01*
X160635714Y-122819580D02*
X160588095Y-122867200D01*
X160588095Y-122867200D02*
X160492857Y-122914819D01*
X160492857Y-122914819D02*
X160207143Y-122914819D01*
X160207143Y-122914819D02*
X160111905Y-122867200D01*
X160111905Y-122867200D02*
X160064286Y-122819580D01*
X172311905Y-129954819D02*
X172311905Y-128954819D01*
X172311905Y-128954819D02*
X172550000Y-128954819D01*
X172550000Y-128954819D02*
X172692857Y-129002438D01*
X172692857Y-129002438D02*
X172788095Y-129097676D01*
X172788095Y-129097676D02*
X172835714Y-129192914D01*
X172835714Y-129192914D02*
X172883333Y-129383390D01*
X172883333Y-129383390D02*
X172883333Y-129526247D01*
X172883333Y-129526247D02*
X172835714Y-129716723D01*
X172835714Y-129716723D02*
X172788095Y-129811961D01*
X172788095Y-129811961D02*
X172692857Y-129907200D01*
X172692857Y-129907200D02*
X172550000Y-129954819D01*
X172550000Y-129954819D02*
X172311905Y-129954819D01*
X173264286Y-129050057D02*
X173311905Y-129002438D01*
X173311905Y-129002438D02*
X173407143Y-128954819D01*
X173407143Y-128954819D02*
X173645238Y-128954819D01*
X173645238Y-128954819D02*
X173740476Y-129002438D01*
X173740476Y-129002438D02*
X173788095Y-129050057D01*
X173788095Y-129050057D02*
X173835714Y-129145295D01*
X173835714Y-129145295D02*
X173835714Y-129240533D01*
X173835714Y-129240533D02*
X173788095Y-129383390D01*
X173788095Y-129383390D02*
X173216667Y-129954819D01*
X173216667Y-129954819D02*
X173835714Y-129954819D01*
X169278571Y-128262295D02*
X168821428Y-128262295D01*
X169050000Y-128262295D02*
X169050000Y-127462295D01*
X169050000Y-127462295D02*
X168973809Y-127576580D01*
X168973809Y-127576580D02*
X168897619Y-127652771D01*
X168897619Y-127652771D02*
X168821428Y-127690866D01*
X136261905Y-111954819D02*
X136261905Y-110954819D01*
X136261905Y-110954819D02*
X136500000Y-110954819D01*
X136500000Y-110954819D02*
X136642857Y-111002438D01*
X136642857Y-111002438D02*
X136738095Y-111097676D01*
X136738095Y-111097676D02*
X136785714Y-111192914D01*
X136785714Y-111192914D02*
X136833333Y-111383390D01*
X136833333Y-111383390D02*
X136833333Y-111526247D01*
X136833333Y-111526247D02*
X136785714Y-111716723D01*
X136785714Y-111716723D02*
X136738095Y-111811961D01*
X136738095Y-111811961D02*
X136642857Y-111907200D01*
X136642857Y-111907200D02*
X136500000Y-111954819D01*
X136500000Y-111954819D02*
X136261905Y-111954819D01*
X137166667Y-110954819D02*
X137785714Y-110954819D01*
X137785714Y-110954819D02*
X137452381Y-111335771D01*
X137452381Y-111335771D02*
X137595238Y-111335771D01*
X137595238Y-111335771D02*
X137690476Y-111383390D01*
X137690476Y-111383390D02*
X137738095Y-111431009D01*
X137738095Y-111431009D02*
X137785714Y-111526247D01*
X137785714Y-111526247D02*
X137785714Y-111764342D01*
X137785714Y-111764342D02*
X137738095Y-111859580D01*
X137738095Y-111859580D02*
X137690476Y-111907200D01*
X137690476Y-111907200D02*
X137595238Y-111954819D01*
X137595238Y-111954819D02*
X137309524Y-111954819D01*
X137309524Y-111954819D02*
X137214286Y-111907200D01*
X137214286Y-111907200D02*
X137166667Y-111859580D01*
X133228571Y-113762295D02*
X132771428Y-113762295D01*
X133000000Y-113762295D02*
X133000000Y-112962295D01*
X133000000Y-112962295D02*
X132923809Y-113076580D01*
X132923809Y-113076580D02*
X132847619Y-113152771D01*
X132847619Y-113152771D02*
X132771428Y-113190866D01*
D11*
X104447666Y-109136985D02*
X104447666Y-109856652D01*
X104447666Y-109856652D02*
X104490000Y-109941318D01*
X104490000Y-109941318D02*
X104532333Y-109983652D01*
X104532333Y-109983652D02*
X104617000Y-110025985D01*
X104617000Y-110025985D02*
X104786333Y-110025985D01*
X104786333Y-110025985D02*
X104871000Y-109983652D01*
X104871000Y-109983652D02*
X104913333Y-109941318D01*
X104913333Y-109941318D02*
X104955666Y-109856652D01*
X104955666Y-109856652D02*
X104955666Y-109136985D01*
X105844666Y-110025985D02*
X105336666Y-110025985D01*
X105590666Y-110025985D02*
X105590666Y-109136985D01*
X105590666Y-109136985D02*
X105505999Y-109263985D01*
X105505999Y-109263985D02*
X105421333Y-109348652D01*
X105421333Y-109348652D02*
X105336666Y-109390985D01*
D10*
X100363095Y-105987200D02*
X100505952Y-106034819D01*
X100505952Y-106034819D02*
X100744047Y-106034819D01*
X100744047Y-106034819D02*
X100839285Y-105987200D01*
X100839285Y-105987200D02*
X100886904Y-105939580D01*
X100886904Y-105939580D02*
X100934523Y-105844342D01*
X100934523Y-105844342D02*
X100934523Y-105749104D01*
X100934523Y-105749104D02*
X100886904Y-105653866D01*
X100886904Y-105653866D02*
X100839285Y-105606247D01*
X100839285Y-105606247D02*
X100744047Y-105558628D01*
X100744047Y-105558628D02*
X100553571Y-105511009D01*
X100553571Y-105511009D02*
X100458333Y-105463390D01*
X100458333Y-105463390D02*
X100410714Y-105415771D01*
X100410714Y-105415771D02*
X100363095Y-105320533D01*
X100363095Y-105320533D02*
X100363095Y-105225295D01*
X100363095Y-105225295D02*
X100410714Y-105130057D01*
X100410714Y-105130057D02*
X100458333Y-105082438D01*
X100458333Y-105082438D02*
X100553571Y-105034819D01*
X100553571Y-105034819D02*
X100791666Y-105034819D01*
X100791666Y-105034819D02*
X100934523Y-105082438D01*
X101744047Y-105987200D02*
X101648809Y-106034819D01*
X101648809Y-106034819D02*
X101458333Y-106034819D01*
X101458333Y-106034819D02*
X101363095Y-105987200D01*
X101363095Y-105987200D02*
X101315476Y-105891961D01*
X101315476Y-105891961D02*
X101315476Y-105511009D01*
X101315476Y-105511009D02*
X101363095Y-105415771D01*
X101363095Y-105415771D02*
X101458333Y-105368152D01*
X101458333Y-105368152D02*
X101648809Y-105368152D01*
X101648809Y-105368152D02*
X101744047Y-105415771D01*
X101744047Y-105415771D02*
X101791666Y-105511009D01*
X101791666Y-105511009D02*
X101791666Y-105606247D01*
X101791666Y-105606247D02*
X101315476Y-105701485D01*
X102601190Y-105987200D02*
X102505952Y-106034819D01*
X102505952Y-106034819D02*
X102315476Y-106034819D01*
X102315476Y-106034819D02*
X102220238Y-105987200D01*
X102220238Y-105987200D02*
X102172619Y-105891961D01*
X102172619Y-105891961D02*
X102172619Y-105511009D01*
X102172619Y-105511009D02*
X102220238Y-105415771D01*
X102220238Y-105415771D02*
X102315476Y-105368152D01*
X102315476Y-105368152D02*
X102505952Y-105368152D01*
X102505952Y-105368152D02*
X102601190Y-105415771D01*
X102601190Y-105415771D02*
X102648809Y-105511009D01*
X102648809Y-105511009D02*
X102648809Y-105606247D01*
X102648809Y-105606247D02*
X102172619Y-105701485D01*
X103458333Y-105987200D02*
X103363095Y-106034819D01*
X103363095Y-106034819D02*
X103172619Y-106034819D01*
X103172619Y-106034819D02*
X103077381Y-105987200D01*
X103077381Y-105987200D02*
X103029762Y-105891961D01*
X103029762Y-105891961D02*
X103029762Y-105511009D01*
X103029762Y-105511009D02*
X103077381Y-105415771D01*
X103077381Y-105415771D02*
X103172619Y-105368152D01*
X103172619Y-105368152D02*
X103363095Y-105368152D01*
X103363095Y-105368152D02*
X103458333Y-105415771D01*
X103458333Y-105415771D02*
X103505952Y-105511009D01*
X103505952Y-105511009D02*
X103505952Y-105606247D01*
X103505952Y-105606247D02*
X103029762Y-105701485D01*
X104363095Y-106034819D02*
X104363095Y-105034819D01*
X104363095Y-105987200D02*
X104267857Y-106034819D01*
X104267857Y-106034819D02*
X104077381Y-106034819D01*
X104077381Y-106034819D02*
X103982143Y-105987200D01*
X103982143Y-105987200D02*
X103934524Y-105939580D01*
X103934524Y-105939580D02*
X103886905Y-105844342D01*
X103886905Y-105844342D02*
X103886905Y-105558628D01*
X103886905Y-105558628D02*
X103934524Y-105463390D01*
X103934524Y-105463390D02*
X103982143Y-105415771D01*
X103982143Y-105415771D02*
X104077381Y-105368152D01*
X104077381Y-105368152D02*
X104267857Y-105368152D01*
X104267857Y-105368152D02*
X104363095Y-105415771D01*
X105553572Y-105987200D02*
X105696429Y-106034819D01*
X105696429Y-106034819D02*
X105934524Y-106034819D01*
X105934524Y-106034819D02*
X106029762Y-105987200D01*
X106029762Y-105987200D02*
X106077381Y-105939580D01*
X106077381Y-105939580D02*
X106125000Y-105844342D01*
X106125000Y-105844342D02*
X106125000Y-105749104D01*
X106125000Y-105749104D02*
X106077381Y-105653866D01*
X106077381Y-105653866D02*
X106029762Y-105606247D01*
X106029762Y-105606247D02*
X105934524Y-105558628D01*
X105934524Y-105558628D02*
X105744048Y-105511009D01*
X105744048Y-105511009D02*
X105648810Y-105463390D01*
X105648810Y-105463390D02*
X105601191Y-105415771D01*
X105601191Y-105415771D02*
X105553572Y-105320533D01*
X105553572Y-105320533D02*
X105553572Y-105225295D01*
X105553572Y-105225295D02*
X105601191Y-105130057D01*
X105601191Y-105130057D02*
X105648810Y-105082438D01*
X105648810Y-105082438D02*
X105744048Y-105034819D01*
X105744048Y-105034819D02*
X105982143Y-105034819D01*
X105982143Y-105034819D02*
X106125000Y-105082438D01*
X106410715Y-105368152D02*
X106791667Y-105368152D01*
X106553572Y-105034819D02*
X106553572Y-105891961D01*
X106553572Y-105891961D02*
X106601191Y-105987200D01*
X106601191Y-105987200D02*
X106696429Y-106034819D01*
X106696429Y-106034819D02*
X106791667Y-106034819D01*
X107553572Y-105368152D02*
X107553572Y-106034819D01*
X107125001Y-105368152D02*
X107125001Y-105891961D01*
X107125001Y-105891961D02*
X107172620Y-105987200D01*
X107172620Y-105987200D02*
X107267858Y-106034819D01*
X107267858Y-106034819D02*
X107410715Y-106034819D01*
X107410715Y-106034819D02*
X107505953Y-105987200D01*
X107505953Y-105987200D02*
X107553572Y-105939580D01*
X108458334Y-106034819D02*
X108458334Y-105034819D01*
X108458334Y-105987200D02*
X108363096Y-106034819D01*
X108363096Y-106034819D02*
X108172620Y-106034819D01*
X108172620Y-106034819D02*
X108077382Y-105987200D01*
X108077382Y-105987200D02*
X108029763Y-105939580D01*
X108029763Y-105939580D02*
X107982144Y-105844342D01*
X107982144Y-105844342D02*
X107982144Y-105558628D01*
X107982144Y-105558628D02*
X108029763Y-105463390D01*
X108029763Y-105463390D02*
X108077382Y-105415771D01*
X108077382Y-105415771D02*
X108172620Y-105368152D01*
X108172620Y-105368152D02*
X108363096Y-105368152D01*
X108363096Y-105368152D02*
X108458334Y-105415771D01*
X108934525Y-106034819D02*
X108934525Y-105368152D01*
X108934525Y-105034819D02*
X108886906Y-105082438D01*
X108886906Y-105082438D02*
X108934525Y-105130057D01*
X108934525Y-105130057D02*
X108982144Y-105082438D01*
X108982144Y-105082438D02*
X108934525Y-105034819D01*
X108934525Y-105034819D02*
X108934525Y-105130057D01*
X109553572Y-106034819D02*
X109458334Y-105987200D01*
X109458334Y-105987200D02*
X109410715Y-105939580D01*
X109410715Y-105939580D02*
X109363096Y-105844342D01*
X109363096Y-105844342D02*
X109363096Y-105558628D01*
X109363096Y-105558628D02*
X109410715Y-105463390D01*
X109410715Y-105463390D02*
X109458334Y-105415771D01*
X109458334Y-105415771D02*
X109553572Y-105368152D01*
X109553572Y-105368152D02*
X109696429Y-105368152D01*
X109696429Y-105368152D02*
X109791667Y-105415771D01*
X109791667Y-105415771D02*
X109839286Y-105463390D01*
X109839286Y-105463390D02*
X109886905Y-105558628D01*
X109886905Y-105558628D02*
X109886905Y-105844342D01*
X109886905Y-105844342D02*
X109839286Y-105939580D01*
X109839286Y-105939580D02*
X109791667Y-105987200D01*
X109791667Y-105987200D02*
X109696429Y-106034819D01*
X109696429Y-106034819D02*
X109553572Y-106034819D01*
X103601191Y-107034819D02*
X104267857Y-108034819D01*
X104267857Y-107034819D02*
X103601191Y-108034819D01*
X104648810Y-108034819D02*
X104648810Y-107034819D01*
X105077381Y-107749104D02*
X105553571Y-107749104D01*
X104982143Y-108034819D02*
X105315476Y-107034819D01*
X105315476Y-107034819D02*
X105648809Y-108034819D01*
X106172619Y-107034819D02*
X106363095Y-107034819D01*
X106363095Y-107034819D02*
X106458333Y-107082438D01*
X106458333Y-107082438D02*
X106553571Y-107177676D01*
X106553571Y-107177676D02*
X106601190Y-107368152D01*
X106601190Y-107368152D02*
X106601190Y-107701485D01*
X106601190Y-107701485D02*
X106553571Y-107891961D01*
X106553571Y-107891961D02*
X106458333Y-107987200D01*
X106458333Y-107987200D02*
X106363095Y-108034819D01*
X106363095Y-108034819D02*
X106172619Y-108034819D01*
X106172619Y-108034819D02*
X106077381Y-107987200D01*
X106077381Y-107987200D02*
X105982143Y-107891961D01*
X105982143Y-107891961D02*
X105934524Y-107701485D01*
X105934524Y-107701485D02*
X105934524Y-107368152D01*
X105934524Y-107368152D02*
X105982143Y-107177676D01*
X105982143Y-107177676D02*
X106077381Y-107082438D01*
X106077381Y-107082438D02*
X106172619Y-107034819D01*
X116954819Y-104801904D02*
X117764342Y-104801904D01*
X117764342Y-104801904D02*
X117859580Y-104754285D01*
X117859580Y-104754285D02*
X117907200Y-104706666D01*
X117907200Y-104706666D02*
X117954819Y-104611428D01*
X117954819Y-104611428D02*
X117954819Y-104420952D01*
X117954819Y-104420952D02*
X117907200Y-104325714D01*
X117907200Y-104325714D02*
X117859580Y-104278095D01*
X117859580Y-104278095D02*
X117764342Y-104230476D01*
X117764342Y-104230476D02*
X116954819Y-104230476D01*
X117050057Y-103801904D02*
X117002438Y-103754285D01*
X117002438Y-103754285D02*
X116954819Y-103659047D01*
X116954819Y-103659047D02*
X116954819Y-103420952D01*
X116954819Y-103420952D02*
X117002438Y-103325714D01*
X117002438Y-103325714D02*
X117050057Y-103278095D01*
X117050057Y-103278095D02*
X117145295Y-103230476D01*
X117145295Y-103230476D02*
X117240533Y-103230476D01*
X117240533Y-103230476D02*
X117383390Y-103278095D01*
X117383390Y-103278095D02*
X117954819Y-103849523D01*
X117954819Y-103849523D02*
X117954819Y-103230476D01*
X139016667Y-122867200D02*
X139159524Y-122914819D01*
X139159524Y-122914819D02*
X139397619Y-122914819D01*
X139397619Y-122914819D02*
X139492857Y-122867200D01*
X139492857Y-122867200D02*
X139540476Y-122819580D01*
X139540476Y-122819580D02*
X139588095Y-122724342D01*
X139588095Y-122724342D02*
X139588095Y-122629104D01*
X139588095Y-122629104D02*
X139540476Y-122533866D01*
X139540476Y-122533866D02*
X139492857Y-122486247D01*
X139492857Y-122486247D02*
X139397619Y-122438628D01*
X139397619Y-122438628D02*
X139207143Y-122391009D01*
X139207143Y-122391009D02*
X139111905Y-122343390D01*
X139111905Y-122343390D02*
X139064286Y-122295771D01*
X139064286Y-122295771D02*
X139016667Y-122200533D01*
X139016667Y-122200533D02*
X139016667Y-122105295D01*
X139016667Y-122105295D02*
X139064286Y-122010057D01*
X139064286Y-122010057D02*
X139111905Y-121962438D01*
X139111905Y-121962438D02*
X139207143Y-121914819D01*
X139207143Y-121914819D02*
X139445238Y-121914819D01*
X139445238Y-121914819D02*
X139588095Y-121962438D01*
X139921429Y-121914819D02*
X140159524Y-122914819D01*
X140159524Y-122914819D02*
X140350000Y-122200533D01*
X140350000Y-122200533D02*
X140540476Y-122914819D01*
X140540476Y-122914819D02*
X140778572Y-121914819D01*
X141111905Y-122010057D02*
X141159524Y-121962438D01*
X141159524Y-121962438D02*
X141254762Y-121914819D01*
X141254762Y-121914819D02*
X141492857Y-121914819D01*
X141492857Y-121914819D02*
X141588095Y-121962438D01*
X141588095Y-121962438D02*
X141635714Y-122010057D01*
X141635714Y-122010057D02*
X141683333Y-122105295D01*
X141683333Y-122105295D02*
X141683333Y-122200533D01*
X141683333Y-122200533D02*
X141635714Y-122343390D01*
X141635714Y-122343390D02*
X141064286Y-122914819D01*
X141064286Y-122914819D02*
X141683333Y-122914819D01*
X164216667Y-101707200D02*
X164359524Y-101754819D01*
X164359524Y-101754819D02*
X164597619Y-101754819D01*
X164597619Y-101754819D02*
X164692857Y-101707200D01*
X164692857Y-101707200D02*
X164740476Y-101659580D01*
X164740476Y-101659580D02*
X164788095Y-101564342D01*
X164788095Y-101564342D02*
X164788095Y-101469104D01*
X164788095Y-101469104D02*
X164740476Y-101373866D01*
X164740476Y-101373866D02*
X164692857Y-101326247D01*
X164692857Y-101326247D02*
X164597619Y-101278628D01*
X164597619Y-101278628D02*
X164407143Y-101231009D01*
X164407143Y-101231009D02*
X164311905Y-101183390D01*
X164311905Y-101183390D02*
X164264286Y-101135771D01*
X164264286Y-101135771D02*
X164216667Y-101040533D01*
X164216667Y-101040533D02*
X164216667Y-100945295D01*
X164216667Y-100945295D02*
X164264286Y-100850057D01*
X164264286Y-100850057D02*
X164311905Y-100802438D01*
X164311905Y-100802438D02*
X164407143Y-100754819D01*
X164407143Y-100754819D02*
X164645238Y-100754819D01*
X164645238Y-100754819D02*
X164788095Y-100802438D01*
X165121429Y-100754819D02*
X165359524Y-101754819D01*
X165359524Y-101754819D02*
X165550000Y-101040533D01*
X165550000Y-101040533D02*
X165740476Y-101754819D01*
X165740476Y-101754819D02*
X165978572Y-100754819D01*
X166788095Y-101088152D02*
X166788095Y-101754819D01*
X166550000Y-100707200D02*
X166311905Y-101421485D01*
X166311905Y-101421485D02*
X166930952Y-101421485D01*
%TO.C,D1*%
D12*
X99450000Y-124900000D02*
X99450000Y-130400000D01*
X99450000Y-124900000D02*
X106450000Y-124900000D01*
X99450000Y-130400000D02*
X106000000Y-130400000D01*
X100250000Y-128550000D02*
X100250000Y-126750000D01*
X105650000Y-128550000D02*
X105650000Y-126750000D01*
X106000000Y-130400000D02*
X106450000Y-129950000D01*
X106450000Y-129950000D02*
X106450000Y-124900000D01*
%TO.C,SW1*%
X111825000Y-120555000D02*
X125795000Y-120555000D01*
X111825000Y-134525000D02*
X111825000Y-120555000D01*
X125795000Y-120555000D02*
X125795000Y-134525000D01*
X125795000Y-134525000D02*
X111825000Y-134525000D01*
%TO.C,SW3*%
X149825000Y-120555000D02*
X163795000Y-120555000D01*
X149825000Y-134525000D02*
X149825000Y-120555000D01*
X163795000Y-120555000D02*
X163795000Y-134525000D01*
X163795000Y-134525000D02*
X149825000Y-134525000D01*
%TO.C,D2*%
X169550000Y-126750000D02*
X169550000Y-132250000D01*
X169550000Y-126750000D02*
X176550000Y-126750000D01*
X169550000Y-132250000D02*
X176100000Y-132250000D01*
X170350000Y-130400000D02*
X170350000Y-128600000D01*
X175750000Y-130400000D02*
X175750000Y-128600000D01*
X176100000Y-132250000D02*
X176550000Y-131800000D01*
X176550000Y-131800000D02*
X176550000Y-126750000D01*
%TO.C,D3*%
X133500000Y-112250000D02*
X133500000Y-117750000D01*
X133500000Y-112250000D02*
X140500000Y-112250000D01*
X133500000Y-117750000D02*
X140050000Y-117750000D01*
X134300000Y-115900000D02*
X134300000Y-114100000D01*
X139700000Y-115900000D02*
X139700000Y-114100000D01*
X140050000Y-117750000D02*
X140500000Y-117300000D01*
X140500000Y-117300000D02*
X140500000Y-112250000D01*
%TO.C,U1*%
D13*
X96225000Y-98580000D02*
X96225000Y-115580000D01*
X98225000Y-117580000D02*
X112025000Y-117580000D01*
X100625000Y-95155970D02*
X109625000Y-95155970D01*
X100625000Y-102509270D02*
X100625000Y-95155970D01*
X109625000Y-95155970D02*
X109625000Y-102509270D01*
X109625000Y-102509270D02*
X100625000Y-102509270D01*
X112025000Y-96580910D02*
X98225000Y-96580910D01*
X114025000Y-115580000D02*
X114025000Y-98580000D01*
D12*
X96225000Y-98580000D02*
G75*
G02*
X98225000Y-96580000I2044612J-44612D01*
G01*
X98225000Y-117580000D02*
G75*
G02*
X96225000Y-115580000I44857J2044857D01*
G01*
X112025000Y-96580000D02*
G75*
G02*
X114025000Y-98580000I-44600J-2044600D01*
G01*
X114025000Y-115580000D02*
G75*
G02*
X112025000Y-117580000I-2000000J0D01*
G01*
D14*
X94252000Y-98280000D02*
G75*
G02*
X93998000Y-98280000I-127000J0D01*
G01*
X93998000Y-98280000D02*
G75*
G02*
X94252000Y-98280000I127000J0D01*
G01*
D15*
X96237285Y-98518295D02*
X96240333Y-98469527D01*
X96244397Y-98420506D01*
X96237285Y-98518295D01*
X114012713Y-115650850D02*
X114009665Y-115699618D01*
X114005601Y-115748639D01*
X114000268Y-115797407D01*
X113993664Y-115846175D01*
X113986044Y-115894690D01*
X113977153Y-115942950D01*
X113967248Y-115990955D01*
X114014492Y-115601574D01*
X114012713Y-115650850D01*
%TO.C,U2*%
D12*
X120000000Y-109420000D02*
X121380000Y-109420000D01*
X121380000Y-108040000D02*
X121380000Y-109420000D01*
X118500000Y-98230000D02*
X156500000Y-98230000D01*
X156500000Y-110230000D01*
X118500000Y-110230000D01*
X118500000Y-98230000D01*
%TO.C,SW2*%
X130825000Y-120555000D02*
X144795000Y-120555000D01*
X130825000Y-134525000D02*
X130825000Y-120555000D01*
X144795000Y-120555000D02*
X144795000Y-134525000D01*
X144795000Y-134525000D02*
X130825000Y-134525000D01*
%TO.C,SW4*%
X162450000Y-104400000D02*
X163050000Y-104400000D01*
X162750000Y-104700000D02*
X162450000Y-104400000D01*
X163050000Y-104400000D02*
X162750000Y-104700000D01*
X164150000Y-102600000D02*
X164150000Y-114400000D01*
X168250000Y-102600000D02*
X164150000Y-102600000D01*
X168250000Y-114400000D02*
X164150000Y-114400000D01*
X169750000Y-108500000D02*
X170750000Y-108500000D01*
X170250000Y-108000000D02*
X170250000Y-109000000D01*
X172250000Y-102600000D02*
X176350000Y-102600000D01*
X176350000Y-102600000D02*
X176350000Y-105000000D01*
X176350000Y-107200000D02*
X176350000Y-109800000D01*
X176350000Y-112000000D02*
X176350000Y-114400000D01*
X176350000Y-114400000D02*
X172250000Y-114400000D01*
X173250000Y-108500000D02*
G75*
G02*
X167250000Y-108500000I-3000000J0D01*
G01*
X167250000Y-108500000D02*
G75*
G02*
X173250000Y-108500000I3000000J0D01*
G01*
%TD*%
M02*
