ISO-10303-21;
HEADER;
/*Generated by software containing ST-Developer
 * from STEP Tools, Inc. (www.steptools.com) 
 */
/*OPTION: using custom renumber hook */
/*description */
/*implementation_level */
FILE_DESCRIPTION(('STEP AP242 Edition 2','STEP AP242 Edition 2''CAx-IF Rec.Pracs.---Representation and Presentation of Product Manufa
cturing Information (PMI)---4.0---2014-10-13','STEP AP242 Edition 2''CAx-IF Rec.Pracs.---Representation and Presentation of Product Manufa
cturing Information (PMI)---4.0---2014-10-13''CAx-IF Rec.Pracs.---3D Tessellated Geometry---0.4---2014-09-14','STEP AP242 Edition 2''CAx-IF Rec.Pracs.---Representation and Presentation of Product Manufa
cturing Information (PMI)---4.0---2014-10-13''CAx-IF Rec.Pracs.---3D Tessellated Geometry---0.4---2014-09-14''2;1','STEP AP242 Edition 2''CAx-IF Rec.Pracs.---Representation and Presentation of Product Manufa
cturing Information (PMI)---4.0---2014-10-13''CAx-IF Rec.Pracs.---3D Tessellated Geometry---0.4---2014-09-14''2;1''CAx-IF Rec.Pracs.---User Defined Attributes---1.5---2016-08-15'),'2;1');
/*name */
/*time_stamp */
/*author */
/*organization */
/*preprocessor_version */
/*originating_system */
/*authorisation */
FILE_NAME('/vol/tmp/translate-14002860410744344158/DINKYPAD (2) - bottom.step','2026-03-30T11:14:59',(''),(''),'ST-DEVELOPER v20','ONSHAPE BY PTC INC, 1.212','  ');
FILE_SCHEMA(('AP242_MANAGED_MODEL_BASED_3D_ENGINEERING_MIM_LF { 1 0 10303 442 3 1 4 }'));
ENDSEC;
DATA;
#10=SHAPE_REPRESENTATION_RELATIONSHIP('','',#641,#11);
#11=ADVANCED_BREP_SHAPE_REPRESENTATION('',(#639),#1103);
#12=PLANE('',#703);
#13=PLANE('',#704);
#14=PLANE('',#705);
#15=PLANE('',#706);
#16=PLANE('',#707);
#17=PLANE('',#708);
#18=PLANE('',#709);
#19=PLANE('',#710);
#20=PLANE('',#711);
#21=PLANE('',#712);
#22=PLANE('',#713);
#23=PLANE('',#714);
#24=PLANE('',#715);
#25=PLANE('',#716);
#26=PLANE('',#717);
#27=SPHERICAL_SURFACE('',#678,0.001);
#28=SPHERICAL_SURFACE('',#685,0.001);
#29=SPHERICAL_SURFACE('',#688,0.001);
#30=SPHERICAL_SURFACE('',#697,0.001);
#31=TOROIDAL_SURFACE('',#646,0.002,0.001);
#32=TOROIDAL_SURFACE('',#654,0.002,0.001);
#33=TOROIDAL_SURFACE('',#658,0.002,0.001);
#34=TOROIDAL_SURFACE('',#670,0.002,0.001);
#35=LINE('',#927,#87);
#36=LINE('',#931,#88);
#37=LINE('',#942,#89);
#38=LINE('',#943,#90);
#39=LINE('',#948,#91);
#40=LINE('',#949,#92);
#41=LINE('',#966,#93);
#42=LINE('',#967,#94);
#43=LINE('',#972,#95);
#44=LINE('',#973,#96);
#45=LINE('',#978,#97);
#46=LINE('',#979,#98);
#47=LINE('',#984,#99);
#48=LINE('',#985,#100);
#49=LINE('',#990,#101);
#50=LINE('',#994,#102);
#51=LINE('',#999,#103);
#52=LINE('',#1003,#104);
#53=LINE('',#1012,#105);
#54=LINE('',#1013,#106);
#55=LINE('',#1018,#107);
#56=LINE('',#1019,#108);
#57=LINE('',#1032,#109);
#58=LINE('',#1033,#110);
#59=LINE('',#1038,#111);
#60=LINE('',#1039,#112);
#61=LINE('',#1044,#113);
#62=LINE('',#1045,#114);
#63=LINE('',#1051,#115);
#64=LINE('',#1053,#116);
#65=LINE('',#1057,#117);
#66=LINE('',#1058,#118);
#67=LINE('',#1060,#119);
#68=LINE('',#1062,#120);
#69=LINE('',#1064,#121);
#70=LINE('',#1066,#122);
#71=LINE('',#1068,#123);
#72=LINE('',#1070,#124);
#73=LINE('',#1072,#125);
#74=LINE('',#1075,#126);
#75=LINE('',#1078,#127);
#76=LINE('',#1080,#128);
#77=LINE('',#1082,#129);
#78=LINE('',#1083,#130);
#79=LINE('',#1085,#131);
#80=LINE('',#1088,#132);
#81=LINE('',#1090,#133);
#82=LINE('',#1092,#134);
#83=LINE('',#1094,#135);
#84=LINE('',#1095,#136);
#85=LINE('',#1097,#137);
#86=LINE('',#1099,#138);
#87=VECTOR('',#724,1.);
#88=VECTOR('',#727,1.);
#89=VECTOR('',#740,1.);
#90=VECTOR('',#741,1.);
#91=VECTOR('',#746,1.);
#92=VECTOR('',#747,1.);
#93=VECTOR('',#768,1.);
#94=VECTOR('',#769,1.);
#95=VECTOR('',#774,1.);
#96=VECTOR('',#775,1.);
#97=VECTOR('',#780,1.);
#98=VECTOR('',#781,1.);
#99=VECTOR('',#786,1.);
#100=VECTOR('',#787,1.);
#101=VECTOR('',#796,1.);
#102=VECTOR('',#799,1.);
#103=VECTOR('',#804,1.);
#104=VECTOR('',#807,1.);
#105=VECTOR('',#818,1.);
#106=VECTOR('',#819,1.);
#107=VECTOR('',#824,1.);
#108=VECTOR('',#825,1.);
#109=VECTOR('',#842,1.);
#110=VECTOR('',#843,1.);
#111=VECTOR('',#848,1.);
#112=VECTOR('',#849,1.);
#113=VECTOR('',#854,1.);
#114=VECTOR('',#855,1.);
#115=VECTOR('',#864,1.);
#116=VECTOR('',#865,1.);
#117=VECTOR('',#870,1.);
#118=VECTOR('',#871,1.);
#119=VECTOR('',#874,1.);
#120=VECTOR('',#877,1.);
#121=VECTOR('',#880,1.);
#122=VECTOR('',#883,1.);
#123=VECTOR('',#886,1.);
#124=VECTOR('',#889,1.);
#125=VECTOR('',#892,1.);
#126=VECTOR('',#897,1.);
#127=VECTOR('',#898,1.);
#128=VECTOR('',#899,1.);
#129=VECTOR('',#900,1.);
#130=VECTOR('',#901,1.);
#131=VECTOR('',#904,1.);
#132=VECTOR('',#905,1.);
#133=VECTOR('',#906,1.);
#134=VECTOR('',#907,1.);
#135=VECTOR('',#910,1.);
#136=VECTOR('',#911,1.);
#137=VECTOR('',#914,1.);
#138=VECTOR('',#917,1.);
#139=ORIENTED_EDGE('',*,*,#315,.F.);
#140=ORIENTED_EDGE('',*,*,#316,.T.);
#141=ORIENTED_EDGE('',*,*,#317,.T.);
#142=ORIENTED_EDGE('',*,*,#318,.F.);
#143=ORIENTED_EDGE('',*,*,#319,.T.);
#144=ORIENTED_EDGE('',*,*,#320,.T.);
#145=ORIENTED_EDGE('',*,*,#317,.F.);
#146=ORIENTED_EDGE('',*,*,#321,.T.);
#147=ORIENTED_EDGE('',*,*,#322,.F.);
#148=ORIENTED_EDGE('',*,*,#323,.T.);
#149=ORIENTED_EDGE('',*,*,#321,.F.);
#150=ORIENTED_EDGE('',*,*,#324,.F.);
#151=ORIENTED_EDGE('',*,*,#325,.F.);
#152=ORIENTED_EDGE('',*,*,#326,.F.);
#153=ORIENTED_EDGE('',*,*,#320,.F.);
#154=ORIENTED_EDGE('',*,*,#327,.T.);
#155=ORIENTED_EDGE('',*,*,#328,.T.);
#156=ORIENTED_EDGE('',*,*,#329,.T.);
#157=ORIENTED_EDGE('',*,*,#322,.T.);
#158=ORIENTED_EDGE('',*,*,#330,.F.);
#159=ORIENTED_EDGE('',*,*,#331,.T.);
#160=ORIENTED_EDGE('',*,*,#332,.F.);
#161=ORIENTED_EDGE('',*,*,#325,.T.);
#162=ORIENTED_EDGE('',*,*,#333,.T.);
#163=ORIENTED_EDGE('',*,*,#334,.F.);
#164=ORIENTED_EDGE('',*,*,#335,.T.);
#165=ORIENTED_EDGE('',*,*,#330,.T.);
#166=ORIENTED_EDGE('',*,*,#336,.F.);
#167=ORIENTED_EDGE('',*,*,#337,.F.);
#168=ORIENTED_EDGE('',*,*,#338,.F.);
#169=ORIENTED_EDGE('',*,*,#328,.F.);
#170=ORIENTED_EDGE('',*,*,#339,.T.);
#171=ORIENTED_EDGE('',*,*,#340,.F.);
#172=ORIENTED_EDGE('',*,*,#341,.T.);
#173=ORIENTED_EDGE('',*,*,#331,.F.);
#174=ORIENTED_EDGE('',*,*,#342,.F.);
#175=ORIENTED_EDGE('',*,*,#343,.F.);
#176=ORIENTED_EDGE('',*,*,#344,.T.);
#177=ORIENTED_EDGE('',*,*,#332,.T.);
#178=ORIENTED_EDGE('',*,*,#345,.F.);
#179=ORIENTED_EDGE('',*,*,#337,.T.);
#180=ORIENTED_EDGE('',*,*,#346,.F.);
#181=ORIENTED_EDGE('',*,*,#340,.T.);
#182=ORIENTED_EDGE('',*,*,#347,.T.);
#183=ORIENTED_EDGE('',*,*,#346,.T.);
#184=ORIENTED_EDGE('',*,*,#348,.F.);
#185=ORIENTED_EDGE('',*,*,#349,.F.);
#186=ORIENTED_EDGE('',*,*,#350,.T.);
#187=ORIENTED_EDGE('',*,*,#351,.F.);
#188=ORIENTED_EDGE('',*,*,#352,.T.);
#189=ORIENTED_EDGE('',*,*,#353,.F.);
#190=ORIENTED_EDGE('',*,*,#354,.F.);
#191=ORIENTED_EDGE('',*,*,#355,.T.);
#192=ORIENTED_EDGE('',*,*,#356,.T.);
#193=ORIENTED_EDGE('',*,*,#353,.T.);
#194=ORIENTED_EDGE('',*,*,#357,.F.);
#195=ORIENTED_EDGE('',*,*,#358,.T.);
#196=ORIENTED_EDGE('',*,*,#355,.F.);
#197=ORIENTED_EDGE('',*,*,#359,.F.);
#198=ORIENTED_EDGE('',*,*,#360,.T.);
#199=ORIENTED_EDGE('',*,*,#361,.T.);
#200=ORIENTED_EDGE('',*,*,#356,.F.);
#201=ORIENTED_EDGE('',*,*,#362,.F.);
#202=ORIENTED_EDGE('',*,*,#363,.T.);
#203=ORIENTED_EDGE('',*,*,#364,.T.);
#204=ORIENTED_EDGE('',*,*,#357,.T.);
#205=ORIENTED_EDGE('',*,*,#365,.F.);
#206=ORIENTED_EDGE('',*,*,#366,.T.);
#207=ORIENTED_EDGE('',*,*,#360,.F.);
#208=ORIENTED_EDGE('',*,*,#367,.F.);
#209=ORIENTED_EDGE('',*,*,#368,.T.);
#210=ORIENTED_EDGE('',*,*,#363,.F.);
#211=ORIENTED_EDGE('',*,*,#369,.F.);
#212=ORIENTED_EDGE('',*,*,#370,.T.);
#213=ORIENTED_EDGE('',*,*,#371,.T.);
#214=ORIENTED_EDGE('',*,*,#364,.F.);
#215=ORIENTED_EDGE('',*,*,#372,.F.);
#216=ORIENTED_EDGE('',*,*,#373,.F.);
#217=ORIENTED_EDGE('',*,*,#374,.T.);
#218=ORIENTED_EDGE('',*,*,#366,.F.);
#219=ORIENTED_EDGE('',*,*,#375,.F.);
#220=ORIENTED_EDGE('',*,*,#376,.F.);
#221=ORIENTED_EDGE('',*,*,#377,.T.);
#222=ORIENTED_EDGE('',*,*,#370,.F.);
#223=ORIENTED_EDGE('',*,*,#378,.T.);
#224=ORIENTED_EDGE('',*,*,#376,.T.);
#225=ORIENTED_EDGE('',*,*,#379,.F.);
#226=ORIENTED_EDGE('',*,*,#380,.F.);
#227=ORIENTED_EDGE('',*,*,#381,.T.);
#228=ORIENTED_EDGE('',*,*,#365,.T.);
#229=ORIENTED_EDGE('',*,*,#382,.F.);
#230=ORIENTED_EDGE('',*,*,#377,.F.);
#231=ORIENTED_EDGE('',*,*,#341,.F.);
#232=ORIENTED_EDGE('',*,*,#350,.F.);
#233=ORIENTED_EDGE('',*,*,#383,.T.);
#234=ORIENTED_EDGE('',*,*,#345,.T.);
#235=ORIENTED_EDGE('',*,*,#384,.F.);
#236=ORIENTED_EDGE('',*,*,#318,.T.);
#237=ORIENTED_EDGE('',*,*,#326,.T.);
#238=ORIENTED_EDGE('',*,*,#344,.F.);
#239=ORIENTED_EDGE('',*,*,#324,.T.);
#240=ORIENTED_EDGE('',*,*,#316,.F.);
#241=ORIENTED_EDGE('',*,*,#385,.F.);
#242=ORIENTED_EDGE('',*,*,#336,.T.);
#243=ORIENTED_EDGE('',*,*,#339,.F.);
#244=ORIENTED_EDGE('',*,*,#335,.F.);
#245=ORIENTED_EDGE('',*,*,#386,.T.);
#246=ORIENTED_EDGE('',*,*,#348,.T.);
#247=ORIENTED_EDGE('',*,*,#379,.T.);
#248=ORIENTED_EDGE('',*,*,#372,.T.);
#249=ORIENTED_EDGE('',*,*,#368,.F.);
#250=ORIENTED_EDGE('',*,*,#387,.F.);
#251=ORIENTED_EDGE('',*,*,#359,.T.);
#252=ORIENTED_EDGE('',*,*,#352,.F.);
#253=ORIENTED_EDGE('',*,*,#388,.F.);
#254=ORIENTED_EDGE('',*,*,#369,.T.);
#255=ORIENTED_EDGE('',*,*,#389,.T.);
#256=ORIENTED_EDGE('',*,*,#354,.T.);
#257=ORIENTED_EDGE('',*,*,#361,.F.);
#258=ORIENTED_EDGE('',*,*,#374,.F.);
#259=ORIENTED_EDGE('',*,*,#382,.T.);
#260=ORIENTED_EDGE('',*,*,#362,.T.);
#261=ORIENTED_EDGE('',*,*,#358,.F.);
#262=ORIENTED_EDGE('',*,*,#371,.F.);
#263=ORIENTED_EDGE('',*,*,#390,.F.);
#264=ORIENTED_EDGE('',*,*,#391,.T.);
#265=ORIENTED_EDGE('',*,*,#392,.T.);
#266=ORIENTED_EDGE('',*,*,#393,.F.);
#267=ORIENTED_EDGE('',*,*,#388,.T.);
#268=ORIENTED_EDGE('',*,*,#351,.T.);
#269=ORIENTED_EDGE('',*,*,#389,.F.);
#270=ORIENTED_EDGE('',*,*,#373,.T.);
#271=ORIENTED_EDGE('',*,*,#394,.F.);
#272=ORIENTED_EDGE('',*,*,#380,.T.);
#273=ORIENTED_EDGE('',*,*,#387,.T.);
#274=ORIENTED_EDGE('',*,*,#367,.T.);
#275=ORIENTED_EDGE('',*,*,#395,.F.);
#276=ORIENTED_EDGE('',*,*,#396,.T.);
#277=ORIENTED_EDGE('',*,*,#397,.T.);
#278=ORIENTED_EDGE('',*,*,#398,.F.);
#279=ORIENTED_EDGE('',*,*,#398,.T.);
#280=ORIENTED_EDGE('',*,*,#399,.F.);
#281=ORIENTED_EDGE('',*,*,#392,.F.);
#282=ORIENTED_EDGE('',*,*,#400,.T.);
#283=ORIENTED_EDGE('',*,*,#397,.F.);
#284=ORIENTED_EDGE('',*,*,#401,.F.);
#285=ORIENTED_EDGE('',*,*,#393,.T.);
#286=ORIENTED_EDGE('',*,*,#399,.T.);
#287=ORIENTED_EDGE('',*,*,#396,.F.);
#288=ORIENTED_EDGE('',*,*,#402,.F.);
#289=ORIENTED_EDGE('',*,*,#390,.T.);
#290=ORIENTED_EDGE('',*,*,#401,.T.);
#291=ORIENTED_EDGE('',*,*,#386,.F.);
#292=ORIENTED_EDGE('',*,*,#334,.T.);
#293=ORIENTED_EDGE('',*,*,#385,.T.);
#294=ORIENTED_EDGE('',*,*,#315,.T.);
#295=ORIENTED_EDGE('',*,*,#384,.T.);
#296=ORIENTED_EDGE('',*,*,#343,.T.);
#297=ORIENTED_EDGE('',*,*,#383,.F.);
#298=ORIENTED_EDGE('',*,*,#349,.T.);
#299=ORIENTED_EDGE('',*,*,#395,.T.);
#300=ORIENTED_EDGE('',*,*,#400,.F.);
#301=ORIENTED_EDGE('',*,*,#391,.F.);
#302=ORIENTED_EDGE('',*,*,#402,.T.);
#303=ORIENTED_EDGE('',*,*,#319,.F.);
#304=ORIENTED_EDGE('',*,*,#323,.F.);
#305=ORIENTED_EDGE('',*,*,#329,.F.);
#306=ORIENTED_EDGE('',*,*,#338,.T.);
#307=ORIENTED_EDGE('',*,*,#347,.F.);
#308=ORIENTED_EDGE('',*,*,#342,.T.);
#309=ORIENTED_EDGE('',*,*,#333,.F.);
#310=ORIENTED_EDGE('',*,*,#327,.F.);
#311=ORIENTED_EDGE('',*,*,#394,.T.);
#312=ORIENTED_EDGE('',*,*,#375,.T.);
#313=ORIENTED_EDGE('',*,*,#381,.F.);
#314=ORIENTED_EDGE('',*,*,#378,.F.);
#315=EDGE_CURVE('',#403,#404,#455,.T.);
#316=EDGE_CURVE('',#403,#405,#35,.T.);
#317=EDGE_CURVE('',#405,#406,#456,.T.);
#318=EDGE_CURVE('',#404,#406,#36,.T.);
#319=EDGE_CURVE('',#407,#408,#457,.T.);
#320=EDGE_CURVE('',#408,#406,#458,.T.);
#321=EDGE_CURVE('',#405,#407,#459,.T.);
#322=EDGE_CURVE('',#409,#410,#460,.T.);
#323=EDGE_CURVE('',#409,#407,#37,.T.);
#324=EDGE_CURVE('',#410,#405,#38,.T.);
#325=EDGE_CURVE('',#411,#412,#461,.T.);
#326=EDGE_CURVE('',#406,#411,#39,.T.);
#327=EDGE_CURVE('',#408,#412,#40,.T.);
#328=EDGE_CURVE('',#413,#414,#462,.T.);
#329=EDGE_CURVE('',#414,#409,#463,.T.);
#330=EDGE_CURVE('',#413,#410,#464,.T.);
#331=EDGE_CURVE('',#415,#416,#465,.T.);
#332=EDGE_CURVE('',#411,#416,#466,.T.);
#333=EDGE_CURVE('',#412,#415,#467,.T.);
#334=EDGE_CURVE('',#417,#418,#468,.T.);
#335=EDGE_CURVE('',#417,#413,#41,.T.);
#336=EDGE_CURVE('',#418,#410,#42,.T.);
#337=EDGE_CURVE('',#419,#420,#469,.T.);
#338=EDGE_CURVE('',#414,#419,#43,.T.);
#339=EDGE_CURVE('',#413,#420,#44,.T.);
#340=EDGE_CURVE('',#421,#422,#470,.T.);
#341=EDGE_CURVE('',#421,#416,#45,.T.);
#342=EDGE_CURVE('',#422,#415,#46,.T.);
#343=EDGE_CURVE('',#423,#424,#471,.T.);
#344=EDGE_CURVE('',#423,#411,#47,.T.);
#345=EDGE_CURVE('',#424,#416,#48,.T.);
#346=EDGE_CURVE('',#421,#420,#472,.T.);
#347=EDGE_CURVE('',#422,#419,#473,.T.);
#348=EDGE_CURVE('',#425,#420,#49,.T.);
#349=EDGE_CURVE('',#426,#425,#474,.T.);
#350=EDGE_CURVE('',#426,#421,#50,.T.);
#351=EDGE_CURVE('',#427,#428,#475,.T.);
#352=EDGE_CURVE('',#427,#429,#51,.T.);
#353=EDGE_CURVE('',#430,#429,#476,.T.);
#354=EDGE_CURVE('',#428,#430,#52,.T.);
#355=EDGE_CURVE('',#429,#431,#477,.T.);
#356=EDGE_CURVE('',#431,#430,#478,.T.);
#357=EDGE_CURVE('',#432,#433,#479,.T.);
#358=EDGE_CURVE('',#432,#431,#53,.T.);
#359=EDGE_CURVE('',#433,#429,#54,.T.);
#360=EDGE_CURVE('',#434,#435,#480,.T.);
#361=EDGE_CURVE('',#435,#430,#55,.T.);
#362=EDGE_CURVE('',#434,#431,#56,.T.);
#363=EDGE_CURVE('',#433,#436,#481,.T.);
#364=EDGE_CURVE('',#436,#432,#482,.T.);
#365=EDGE_CURVE('',#437,#434,#483,.T.);
#366=EDGE_CURVE('',#437,#435,#484,.T.);
#367=EDGE_CURVE('',#438,#439,#485,.T.);
#368=EDGE_CURVE('',#438,#436,#57,.T.);
#369=EDGE_CURVE('',#439,#433,#58,.T.);
#370=EDGE_CURVE('',#440,#441,#486,.T.);
#371=EDGE_CURVE('',#441,#432,#59,.T.);
#372=EDGE_CURVE('',#440,#436,#60,.T.);
#373=EDGE_CURVE('',#442,#443,#487,.T.);
#374=EDGE_CURVE('',#442,#435,#61,.T.);
#375=EDGE_CURVE('',#443,#437,#62,.T.);
#376=EDGE_CURVE('',#444,#440,#488,.T.);
#377=EDGE_CURVE('',#444,#441,#489,.T.);
#378=EDGE_CURVE('',#445,#444,#63,.T.);
#379=EDGE_CURVE('',#446,#440,#64,.T.);
#380=EDGE_CURVE('',#445,#446,#490,.T.);
#381=EDGE_CURVE('',#444,#437,#65,.T.);
#382=EDGE_CURVE('',#441,#434,#66,.T.);
#383=EDGE_CURVE('',#426,#424,#67,.T.);
#384=EDGE_CURVE('',#404,#423,#68,.T.);
#385=EDGE_CURVE('',#418,#403,#69,.T.);
#386=EDGE_CURVE('',#417,#425,#70,.T.);
#387=EDGE_CURVE('',#446,#438,#71,.T.);
#388=EDGE_CURVE('',#439,#427,#72,.T.);
#389=EDGE_CURVE('',#442,#428,#73,.T.);
#390=EDGE_CURVE('',#447,#448,#74,.T.);
#391=EDGE_CURVE('',#447,#449,#75,.T.);
#392=EDGE_CURVE('',#449,#450,#76,.T.);
#393=EDGE_CURVE('',#448,#450,#77,.T.);
#394=EDGE_CURVE('',#445,#443,#78,.T.);
#395=EDGE_CURVE('',#451,#452,#79,.T.);
#396=EDGE_CURVE('',#451,#453,#80,.T.);
#397=EDGE_CURVE('',#453,#454,#81,.T.);
#398=EDGE_CURVE('',#452,#454,#82,.T.);
#399=EDGE_CURVE('',#450,#454,#83,.T.);
#400=EDGE_CURVE('',#449,#452,#84,.T.);
#401=EDGE_CURVE('',#448,#453,#85,.T.);
#402=EDGE_CURVE('',#447,#451,#86,.T.);
#403=VERTEX_POINT('',#925);
#404=VERTEX_POINT('',#926);
#405=VERTEX_POINT('',#928);
#406=VERTEX_POINT('',#930);
#407=VERTEX_POINT('',#934);
#408=VERTEX_POINT('',#935);
#409=VERTEX_POINT('',#940);
#410=VERTEX_POINT('',#941);
#411=VERTEX_POINT('',#946);
#412=VERTEX_POINT('',#947);
#413=VERTEX_POINT('',#952);
#414=VERTEX_POINT('',#953);
#415=VERTEX_POINT('',#958);
#416=VERTEX_POINT('',#959);
#417=VERTEX_POINT('',#964);
#418=VERTEX_POINT('',#965);
#419=VERTEX_POINT('',#970);
#420=VERTEX_POINT('',#971);
#421=VERTEX_POINT('',#976);
#422=VERTEX_POINT('',#977);
#423=VERTEX_POINT('',#982);
#424=VERTEX_POINT('',#983);
#425=VERTEX_POINT('',#991);
#426=VERTEX_POINT('',#993);
#427=VERTEX_POINT('',#997);
#428=VERTEX_POINT('',#998);
#429=VERTEX_POINT('',#1000);
#430=VERTEX_POINT('',#1002);
#431=VERTEX_POINT('',#1006);
#432=VERTEX_POINT('',#1010);
#433=VERTEX_POINT('',#1011);
#434=VERTEX_POINT('',#1016);
#435=VERTEX_POINT('',#1017);
#436=VERTEX_POINT('',#1022);
#437=VERTEX_POINT('',#1026);
#438=VERTEX_POINT('',#1030);
#439=VERTEX_POINT('',#1031);
#440=VERTEX_POINT('',#1036);
#441=VERTEX_POINT('',#1037);
#442=VERTEX_POINT('',#1042);
#443=VERTEX_POINT('',#1043);
#444=VERTEX_POINT('',#1048);
#445=VERTEX_POINT('',#1052);
#446=VERTEX_POINT('',#1054);
#447=VERTEX_POINT('',#1076);
#448=VERTEX_POINT('',#1077);
#449=VERTEX_POINT('',#1079);
#450=VERTEX_POINT('',#1081);
#451=VERTEX_POINT('',#1086);
#452=VERTEX_POINT('',#1087);
#453=VERTEX_POINT('',#1089);
#454=VERTEX_POINT('',#1091);
#455=CIRCLE('',#644,0.001);
#456=CIRCLE('',#645,0.001);
#457=CIRCLE('',#647,0.002);
#458=CIRCLE('',#648,0.001);
#459=CIRCLE('',#649,0.001);
#460=CIRCLE('',#651,0.001);
#461=CIRCLE('',#653,0.001);
#462=CIRCLE('',#655,0.001);
#463=CIRCLE('',#656,0.002);
#464=CIRCLE('',#657,0.001);
#465=CIRCLE('',#659,0.001);
#466=CIRCLE('',#660,0.001);
#467=CIRCLE('',#661,0.002);
#468=CIRCLE('',#663,0.001);
#469=CIRCLE('',#665,0.001);
#470=CIRCLE('',#667,0.001);
#471=CIRCLE('',#669,0.001);
#472=CIRCLE('',#671,0.001);
#473=CIRCLE('',#672,0.002);
#474=CIRCLE('',#674,0.001);
#475=CIRCLE('',#676,0.001);
#476=CIRCLE('',#677,0.001);
#477=CIRCLE('',#679,0.001);
#478=CIRCLE('',#680,0.001);
#479=CIRCLE('',#682,0.001);
#480=CIRCLE('',#684,0.001);
#481=CIRCLE('',#686,0.001);
#482=CIRCLE('',#687,0.001);
#483=CIRCLE('',#689,0.001);
#484=CIRCLE('',#690,0.001);
#485=CIRCLE('',#692,0.001);
#486=CIRCLE('',#694,0.001);
#487=CIRCLE('',#696,0.001);
#488=CIRCLE('',#698,0.001);
#489=CIRCLE('',#699,0.001);
#490=CIRCLE('',#701,0.001);
#491=EDGE_LOOP('',(#139,#140,#141,#142));
#492=EDGE_LOOP('',(#143,#144,#145,#146));
#493=EDGE_LOOP('',(#147,#148,#149,#150));
#494=EDGE_LOOP('',(#151,#152,#153,#154));
#495=EDGE_LOOP('',(#155,#156,#157,#158));
#496=EDGE_LOOP('',(#159,#160,#161,#162));
#497=EDGE_LOOP('',(#163,#164,#165,#166));
#498=EDGE_LOOP('',(#167,#168,#169,#170));
#499=EDGE_LOOP('',(#171,#172,#173,#174));
#500=EDGE_LOOP('',(#175,#176,#177,#178));
#501=EDGE_LOOP('',(#179,#180,#181,#182));
#502=EDGE_LOOP('',(#183,#184,#185,#186));
#503=EDGE_LOOP('',(#187,#188,#189,#190));
#504=EDGE_LOOP('',(#191,#192,#193));
#505=EDGE_LOOP('',(#194,#195,#196,#197));
#506=EDGE_LOOP('',(#198,#199,#200,#201));
#507=EDGE_LOOP('',(#202,#203,#204));
#508=EDGE_LOOP('',(#205,#206,#207));
#509=EDGE_LOOP('',(#208,#209,#210,#211));
#510=EDGE_LOOP('',(#212,#213,#214,#215));
#511=EDGE_LOOP('',(#216,#217,#218,#219));
#512=EDGE_LOOP('',(#220,#221,#222));
#513=EDGE_LOOP('',(#223,#224,#225,#226));
#514=EDGE_LOOP('',(#227,#228,#229,#230));
#515=EDGE_LOOP('',(#231,#232,#233,#234));
#516=EDGE_LOOP('',(#235,#236,#237,#238));
#517=EDGE_LOOP('',(#239,#240,#241,#242));
#518=EDGE_LOOP('',(#243,#244,#245,#246));
#519=EDGE_LOOP('',(#247,#248,#249,#250));
#520=EDGE_LOOP('',(#251,#252,#253,#254));
#521=EDGE_LOOP('',(#255,#256,#257,#258));
#522=EDGE_LOOP('',(#259,#260,#261,#262));
#523=EDGE_LOOP('',(#263,#264,#265,#266));
#524=EDGE_LOOP('',(#267,#268,#269,#270,#271,#272,#273,#274));
#525=EDGE_LOOP('',(#275,#276,#277,#278));
#526=EDGE_LOOP('',(#279,#280,#281,#282));
#527=EDGE_LOOP('',(#283,#284,#285,#286));
#528=EDGE_LOOP('',(#287,#288,#289,#290));
#529=EDGE_LOOP('',(#291,#292,#293,#294,#295,#296,#297,#298));
#530=EDGE_LOOP('',(#299,#300,#301,#302));
#531=EDGE_LOOP('',(#303,#304,#305,#306,#307,#308,#309,#310));
#532=EDGE_LOOP('',(#311,#312,#313,#314));
#533=FACE_BOUND('',#491,.T.);
#534=FACE_BOUND('',#492,.T.);
#535=FACE_BOUND('',#493,.T.);
#536=FACE_BOUND('',#494,.T.);
#537=FACE_BOUND('',#495,.T.);
#538=FACE_BOUND('',#496,.T.);
#539=FACE_BOUND('',#497,.T.);
#540=FACE_BOUND('',#498,.T.);
#541=FACE_BOUND('',#499,.T.);
#542=FACE_BOUND('',#500,.T.);
#543=FACE_BOUND('',#501,.T.);
#544=FACE_BOUND('',#502,.T.);
#545=FACE_BOUND('',#503,.T.);
#546=FACE_BOUND('',#504,.T.);
#547=FACE_BOUND('',#505,.T.);
#548=FACE_BOUND('',#506,.T.);
#549=FACE_BOUND('',#507,.T.);
#550=FACE_BOUND('',#508,.T.);
#551=FACE_BOUND('',#509,.T.);
#552=FACE_BOUND('',#510,.T.);
#553=FACE_BOUND('',#511,.T.);
#554=FACE_BOUND('',#512,.T.);
#555=FACE_BOUND('',#513,.T.);
#556=FACE_BOUND('',#514,.T.);
#557=FACE_BOUND('',#515,.T.);
#558=FACE_BOUND('',#516,.T.);
#559=FACE_BOUND('',#517,.T.);
#560=FACE_BOUND('',#518,.T.);
#561=FACE_BOUND('',#519,.T.);
#562=FACE_BOUND('',#520,.T.);
#563=FACE_BOUND('',#521,.T.);
#564=FACE_BOUND('',#522,.T.);
#565=FACE_BOUND('',#523,.T.);
#566=FACE_BOUND('',#524,.T.);
#567=FACE_BOUND('',#525,.T.);
#568=FACE_BOUND('',#526,.T.);
#569=FACE_BOUND('',#527,.T.);
#570=FACE_BOUND('',#528,.T.);
#571=FACE_BOUND('',#529,.T.);
#572=FACE_BOUND('',#530,.T.);
#573=FACE_BOUND('',#531,.T.);
#574=FACE_BOUND('',#532,.T.);
#575=CYLINDRICAL_SURFACE('',#643,0.001);
#576=CYLINDRICAL_SURFACE('',#650,0.001);
#577=CYLINDRICAL_SURFACE('',#652,0.001);
#578=CYLINDRICAL_SURFACE('',#662,0.001);
#579=CYLINDRICAL_SURFACE('',#664,0.001);
#580=CYLINDRICAL_SURFACE('',#666,0.001);
#581=CYLINDRICAL_SURFACE('',#668,0.001);
#582=CYLINDRICAL_SURFACE('',#673,0.001);
#583=CYLINDRICAL_SURFACE('',#675,0.001);
#584=CYLINDRICAL_SURFACE('',#681,0.001);
#585=CYLINDRICAL_SURFACE('',#683,0.001);
#586=CYLINDRICAL_SURFACE('',#691,0.001);
#587=CYLINDRICAL_SURFACE('',#693,0.001);
#588=CYLINDRICAL_SURFACE('',#695,0.001);
#589=CYLINDRICAL_SURFACE('',#700,0.001);
#590=CYLINDRICAL_SURFACE('',#702,0.001);
#591=ADVANCED_FACE('',(#533),#575,.F.);
#592=ADVANCED_FACE('',(#534),#31,.T.);
#593=ADVANCED_FACE('',(#535),#576,.T.);
#594=ADVANCED_FACE('',(#536),#577,.T.);
#595=ADVANCED_FACE('',(#537),#32,.T.);
#596=ADVANCED_FACE('',(#538),#33,.T.);
#597=ADVANCED_FACE('',(#539),#578,.F.);
#598=ADVANCED_FACE('',(#540),#579,.T.);
#599=ADVANCED_FACE('',(#541),#580,.T.);
#600=ADVANCED_FACE('',(#542),#581,.F.);
#601=ADVANCED_FACE('',(#543),#34,.T.);
#602=ADVANCED_FACE('',(#544),#582,.F.);
#603=ADVANCED_FACE('',(#545),#583,.T.);
#604=ADVANCED_FACE('',(#546),#27,.T.);
#605=ADVANCED_FACE('',(#547),#584,.T.);
#606=ADVANCED_FACE('',(#548),#585,.T.);
#607=ADVANCED_FACE('',(#549),#28,.T.);
#608=ADVANCED_FACE('',(#550),#29,.T.);
#609=ADVANCED_FACE('',(#551),#586,.T.);
#610=ADVANCED_FACE('',(#552),#587,.T.);
#611=ADVANCED_FACE('',(#553),#588,.T.);
#612=ADVANCED_FACE('',(#554),#30,.T.);
#613=ADVANCED_FACE('',(#555),#589,.T.);
#614=ADVANCED_FACE('',(#556),#590,.T.);
#615=ADVANCED_FACE('',(#557),#12,.T.);
#616=ADVANCED_FACE('',(#558),#13,.F.);
#617=ADVANCED_FACE('',(#559),#14,.F.);
#618=ADVANCED_FACE('',(#560),#15,.T.);
#619=ADVANCED_FACE('',(#561),#16,.F.);
#620=ADVANCED_FACE('',(#562),#17,.F.);
#621=ADVANCED_FACE('',(#563),#18,.T.);
#622=ADVANCED_FACE('',(#564),#19,.F.);
#623=ADVANCED_FACE('',(#565,#566),#20,.T.);
#624=ADVANCED_FACE('',(#567),#21,.T.);
#625=ADVANCED_FACE('',(#568),#22,.F.);
#626=ADVANCED_FACE('',(#569),#23,.T.);
#627=ADVANCED_FACE('',(#570),#24,.T.);
#628=ADVANCED_FACE('',(#571,#572),#25,.F.);
#629=ADVANCED_FACE('',(#573,#574),#26,.T.);
#630=CLOSED_SHELL('',(#591,#592,#593,#594,#595,#596,#597,#598,#599,#600,#601,#602,#603,#604,#605,#606,#607,#608,#609,#610,#611,#612,#613,#614,#615,#616,#617,#618,#619,#620,#621,#622,#623,#624,#625,#626,#627,#628,#629));
#631=STYLED_ITEM('',(#632),#639);
#632=PRESENTATION_STYLE_ASSIGNMENT((#633));
#633=SURFACE_STYLE_USAGE(.BOTH.,#634);
#634=SURFACE_SIDE_STYLE('',(#635));
#635=SURFACE_STYLE_FILL_AREA(#636);
#636=FILL_AREA_STYLE('',(#637));
#637=FILL_AREA_STYLE_COLOUR('',#638);
#638=COLOUR_RGB('',0.752941176470588,0.0274509803921569,0.0274509803921569);
#639=MANIFOLD_SOLID_BREP('bottom',#630);
#640=SHAPE_DEFINITION_REPRESENTATION(#1108,#641);
#641=SHAPE_REPRESENTATION('bottom',(#642),#1103);
#642=AXIS2_PLACEMENT_3D('',#922,#718,#719);
#643=AXIS2_PLACEMENT_3D('',#923,#720,#721);
#644=AXIS2_PLACEMENT_3D('',#924,#722,#723);
#645=AXIS2_PLACEMENT_3D('',#929,#725,#726);
#646=AXIS2_PLACEMENT_3D('',#932,#728,#729);
#647=AXIS2_PLACEMENT_3D('',#933,#730,#731);
#648=AXIS2_PLACEMENT_3D('',#936,#732,#733);
#649=AXIS2_PLACEMENT_3D('',#937,#734,#735);
#650=AXIS2_PLACEMENT_3D('',#938,#736,#737);
#651=AXIS2_PLACEMENT_3D('',#939,#738,#739);
#652=AXIS2_PLACEMENT_3D('',#944,#742,#743);
#653=AXIS2_PLACEMENT_3D('',#945,#744,#745);
#654=AXIS2_PLACEMENT_3D('',#950,#748,#749);
#655=AXIS2_PLACEMENT_3D('',#951,#750,#751);
#656=AXIS2_PLACEMENT_3D('',#954,#752,#753);
#657=AXIS2_PLACEMENT_3D('',#955,#754,#755);
#658=AXIS2_PLACEMENT_3D('',#956,#756,#757);
#659=AXIS2_PLACEMENT_3D('',#957,#758,#759);
#660=AXIS2_PLACEMENT_3D('',#960,#760,#761);
#661=AXIS2_PLACEMENT_3D('',#961,#762,#763);
#662=AXIS2_PLACEMENT_3D('',#962,#764,#765);
#663=AXIS2_PLACEMENT_3D('',#963,#766,#767);
#664=AXIS2_PLACEMENT_3D('',#968,#770,#771);
#665=AXIS2_PLACEMENT_3D('',#969,#772,#773);
#666=AXIS2_PLACEMENT_3D('',#974,#776,#777);
#667=AXIS2_PLACEMENT_3D('',#975,#778,#779);
#668=AXIS2_PLACEMENT_3D('',#980,#782,#783);
#669=AXIS2_PLACEMENT_3D('',#981,#784,#785);
#670=AXIS2_PLACEMENT_3D('',#986,#788,#789);
#671=AXIS2_PLACEMENT_3D('',#987,#790,#791);
#672=AXIS2_PLACEMENT_3D('',#988,#792,#793);
#673=AXIS2_PLACEMENT_3D('',#989,#794,#795);
#674=AXIS2_PLACEMENT_3D('',#992,#797,#798);
#675=AXIS2_PLACEMENT_3D('',#995,#800,#801);
#676=AXIS2_PLACEMENT_3D('',#996,#802,#803);
#677=AXIS2_PLACEMENT_3D('',#1001,#805,#806);
#678=AXIS2_PLACEMENT_3D('',#1004,#808,#809);
#679=AXIS2_PLACEMENT_3D('',#1005,#810,#811);
#680=AXIS2_PLACEMENT_3D('',#1007,#812,#813);
#681=AXIS2_PLACEMENT_3D('',#1008,#814,#815);
#682=AXIS2_PLACEMENT_3D('',#1009,#816,#817);
#683=AXIS2_PLACEMENT_3D('',#1014,#820,#821);
#684=AXIS2_PLACEMENT_3D('',#1015,#822,#823);
#685=AXIS2_PLACEMENT_3D('',#1020,#826,#827);
#686=AXIS2_PLACEMENT_3D('',#1021,#828,#829);
#687=AXIS2_PLACEMENT_3D('',#1023,#830,#831);
#688=AXIS2_PLACEMENT_3D('',#1024,#832,#833);
#689=AXIS2_PLACEMENT_3D('',#1025,#834,#835);
#690=AXIS2_PLACEMENT_3D('',#1027,#836,#837);
#691=AXIS2_PLACEMENT_3D('',#1028,#838,#839);
#692=AXIS2_PLACEMENT_3D('',#1029,#840,#841);
#693=AXIS2_PLACEMENT_3D('',#1034,#844,#845);
#694=AXIS2_PLACEMENT_3D('',#1035,#846,#847);
#695=AXIS2_PLACEMENT_3D('',#1040,#850,#851);
#696=AXIS2_PLACEMENT_3D('',#1041,#852,#853);
#697=AXIS2_PLACEMENT_3D('',#1046,#856,#857);
#698=AXIS2_PLACEMENT_3D('',#1047,#858,#859);
#699=AXIS2_PLACEMENT_3D('',#1049,#860,#861);
#700=AXIS2_PLACEMENT_3D('',#1050,#862,#863);
#701=AXIS2_PLACEMENT_3D('',#1055,#866,#867);
#702=AXIS2_PLACEMENT_3D('',#1056,#868,#869);
#703=AXIS2_PLACEMENT_3D('',#1059,#872,#873);
#704=AXIS2_PLACEMENT_3D('',#1061,#875,#876);
#705=AXIS2_PLACEMENT_3D('',#1063,#878,#879);
#706=AXIS2_PLACEMENT_3D('',#1065,#881,#882);
#707=AXIS2_PLACEMENT_3D('',#1067,#884,#885);
#708=AXIS2_PLACEMENT_3D('',#1069,#887,#888);
#709=AXIS2_PLACEMENT_3D('',#1071,#890,#891);
#710=AXIS2_PLACEMENT_3D('',#1073,#893,#894);
#711=AXIS2_PLACEMENT_3D('',#1074,#895,#896);
#712=AXIS2_PLACEMENT_3D('',#1084,#902,#903);
#713=AXIS2_PLACEMENT_3D('',#1093,#908,#909);
#714=AXIS2_PLACEMENT_3D('',#1096,#912,#913);
#715=AXIS2_PLACEMENT_3D('',#1098,#915,#916);
#716=AXIS2_PLACEMENT_3D('',#1100,#918,#919);
#717=AXIS2_PLACEMENT_3D('',#1101,#920,#921);
#718=DIRECTION('',(0.,0.,1.));
#719=DIRECTION('',(1.,0.,0.));
#720=DIRECTION('',(0.,-1.,0.));
#721=DIRECTION('',(0.,0.,-1.));
#722=DIRECTION('',(0.,1.,0.));
#723=DIRECTION('',(0.,0.,1.));
#724=DIRECTION('',(0.,1.,0.));
#725=DIRECTION('',(0.,1.,0.));
#726=DIRECTION('',(0.,0.,1.));
#727=DIRECTION('',(0.,1.,0.));
#728=DIRECTION('',(0.,1.,0.));
#729=DIRECTION('',(0.,0.,1.));
#730=DIRECTION('',(0.,1.,0.));
#731=DIRECTION('',(0.,0.,1.));
#732=DIRECTION('',(1.,0.,0.));
#733=DIRECTION('',(0.,0.,-1.));
#734=DIRECTION('',(0.,0.,-1.));
#735=DIRECTION('',(-1.,0.,0.));
#736=DIRECTION('',(0.,0.,1.));
#737=DIRECTION('',(1.,0.,0.));
#738=DIRECTION('',(0.,0.,1.));
#739=DIRECTION('',(1.,0.,0.));
#740=DIRECTION('',(0.,0.,-1.));
#741=DIRECTION('',(0.,0.,-1.));
#742=DIRECTION('',(1.,0.,0.));
#743=DIRECTION('',(0.,0.,-1.));
#744=DIRECTION('',(-1.,0.,0.));
#745=DIRECTION('',(0.,0.,1.));
#746=DIRECTION('',(-1.,0.,0.));
#747=DIRECTION('',(-1.,0.,0.));
#748=DIRECTION('',(0.,1.,0.));
#749=DIRECTION('',(0.,0.,1.));
#750=DIRECTION('',(1.,0.,0.));
#751=DIRECTION('',(0.,0.,-1.));
#752=DIRECTION('',(0.,1.,0.));
#753=DIRECTION('',(0.,0.,1.));
#754=DIRECTION('',(0.,1.,0.));
#755=DIRECTION('',(0.,0.,1.));
#756=DIRECTION('',(0.,1.,0.));
#757=DIRECTION('',(0.,0.,1.));
#758=DIRECTION('',(0.,0.,-1.));
#759=DIRECTION('',(-1.,0.,0.));
#760=DIRECTION('',(0.,1.,0.));
#761=DIRECTION('',(0.,0.,1.));
#762=DIRECTION('',(0.,1.,0.));
#763=DIRECTION('',(0.,0.,1.));
#764=DIRECTION('',(0.,1.,0.));
#765=DIRECTION('',(0.,0.,1.));
#766=DIRECTION('',(0.,1.,0.));
#767=DIRECTION('',(0.,0.,1.));
#768=DIRECTION('',(0.,1.,0.));
#769=DIRECTION('',(0.,1.,0.));
#770=DIRECTION('',(-1.,0.,0.));
#771=DIRECTION('',(0.,0.,1.));
#772=DIRECTION('',(-1.,0.,0.));
#773=DIRECTION('',(0.,0.,1.));
#774=DIRECTION('',(-1.,0.,0.));
#775=DIRECTION('',(-1.,0.,0.));
#776=DIRECTION('',(0.,0.,-1.));
#777=DIRECTION('',(-1.,0.,0.));
#778=DIRECTION('',(0.,0.,1.));
#779=DIRECTION('',(1.,0.,0.));
#780=DIRECTION('',(0.,0.,-1.));
#781=DIRECTION('',(0.,0.,-1.));
#782=DIRECTION('',(0.,1.,0.));
#783=DIRECTION('',(0.,0.,1.));
#784=DIRECTION('',(0.,1.,0.));
#785=DIRECTION('',(0.,0.,1.));
#786=DIRECTION('',(0.,1.,0.));
#787=DIRECTION('',(0.,1.,0.));
#788=DIRECTION('',(0.,1.,0.));
#789=DIRECTION('',(0.,0.,1.));
#790=DIRECTION('',(0.,1.,0.));
#791=DIRECTION('',(0.,0.,1.));
#792=DIRECTION('',(0.,1.,0.));
#793=DIRECTION('',(0.,0.,1.));
#794=DIRECTION('',(0.,-1.,0.));
#795=DIRECTION('',(0.,0.,-1.));
#796=DIRECTION('',(0.,1.,0.));
#797=DIRECTION('',(0.,1.,0.));
#798=DIRECTION('',(0.,0.,1.));
#799=DIRECTION('',(0.,1.,0.));
#800=DIRECTION('',(0.,0.,1.));
#801=DIRECTION('',(1.,0.,0.));
#802=DIRECTION('',(0.,0.,1.));
#803=DIRECTION('',(1.,0.,0.));
#804=DIRECTION('',(0.,0.,-1.));
#805=DIRECTION('',(0.,-1.73472347597681E-15,-1.));
#806=DIRECTION('',(0.,1.,-1.73472347597681E-15));
#807=DIRECTION('',(0.,0.,-1.));
#808=DIRECTION('',(0.,0.,-1.));
#809=DIRECTION('',(-1.,0.,0.));
#810=DIRECTION('',(1.,0.,0.));
#811=DIRECTION('',(0.,0.,-1.));
#812=DIRECTION('',(0.,-1.,0.));
#813=DIRECTION('',(0.,0.,-1.));
#814=DIRECTION('',(1.,0.,0.));
#815=DIRECTION('',(0.,0.,-1.));
#816=DIRECTION('',(-1.,0.,0.));
#817=DIRECTION('',(0.,0.,1.));
#818=DIRECTION('',(1.,0.,0.));
#819=DIRECTION('',(1.,0.,0.));
#820=DIRECTION('',(0.,1.,0.));
#821=DIRECTION('',(0.,0.,1.));
#822=DIRECTION('',(0.,-1.,0.));
#823=DIRECTION('',(0.,0.,-1.));
#824=DIRECTION('',(0.,-1.,0.));
#825=DIRECTION('',(0.,-1.,0.));
#826=DIRECTION('',(-1.,0.,1.73472347597681E-15));
#827=DIRECTION('',(1.73472347597681E-15,0.,1.));
#828=DIRECTION('',(0.,0.,-1.));
#829=DIRECTION('',(-1.,0.,0.));
#830=DIRECTION('',(0.,-1.,0.));
#831=DIRECTION('',(0.,0.,-1.));
#832=DIRECTION('',(1.,0.,0.));
#833=DIRECTION('',(0.,0.,-1.));
#834=DIRECTION('',(-1.,0.,0.));
#835=DIRECTION('',(0.,0.,1.));
#836=DIRECTION('',(0.,0.,-1.));
#837=DIRECTION('',(-1.,0.,0.));
#838=DIRECTION('',(0.,0.,-1.));
#839=DIRECTION('',(-1.,0.,0.));
#840=DIRECTION('',(0.,0.,1.));
#841=DIRECTION('',(1.,0.,0.));
#842=DIRECTION('',(0.,0.,-1.));
#843=DIRECTION('',(0.,0.,-1.));
#844=DIRECTION('',(0.,-1.,0.));
#845=DIRECTION('',(0.,0.,-1.));
#846=DIRECTION('',(0.,-1.,0.));
#847=DIRECTION('',(0.,0.,-1.));
#848=DIRECTION('',(0.,-1.,0.));
#849=DIRECTION('',(0.,-1.,0.));
#850=DIRECTION('',(0.,0.,-1.));
#851=DIRECTION('',(-1.,0.,0.));
#852=DIRECTION('',(0.,0.,1.));
#853=DIRECTION('',(1.,0.,0.));
#854=DIRECTION('',(0.,0.,-1.));
#855=DIRECTION('',(0.,0.,-1.));
#856=DIRECTION('',(0.,0.,1.));
#857=DIRECTION('',(1.,0.,0.));
#858=DIRECTION('',(0.,0.,1.));
#859=DIRECTION('',(1.,0.,0.));
#860=DIRECTION('',(-1.,0.,0.));
#861=DIRECTION('',(0.,0.,1.));
#862=DIRECTION('',(0.,0.,1.));
#863=DIRECTION('',(1.,0.,0.));
#864=DIRECTION('',(0.,0.,-1.));
#865=DIRECTION('',(0.,0.,-1.));
#866=DIRECTION('',(0.,0.,1.));
#867=DIRECTION('',(1.,0.,0.));
#868=DIRECTION('',(-1.,0.,0.));
#869=DIRECTION('',(0.,0.,1.));
#870=DIRECTION('',(1.,0.,0.));
#871=DIRECTION('',(1.,0.,0.));
#872=DIRECTION('',(1.,0.,0.));
#873=DIRECTION('',(0.,0.,-1.));
#874=DIRECTION('',(0.,0.,-1.));
#875=DIRECTION('',(0.,0.,-1.));
#876=DIRECTION('',(-1.,0.,0.));
#877=DIRECTION('',(-1.,0.,0.));
#878=DIRECTION('',(1.,0.,0.));
#879=DIRECTION('',(0.,0.,-1.));
#880=DIRECTION('',(0.,0.,-1.));
#881=DIRECTION('',(0.,0.,-1.));
#882=DIRECTION('',(-1.,0.,0.));
#883=DIRECTION('',(-1.,0.,0.));
#884=DIRECTION('',(1.,0.,0.));
#885=DIRECTION('',(0.,0.,-1.));
#886=DIRECTION('',(0.,-1.,0.));
#887=DIRECTION('',(0.,1.,0.));
#888=DIRECTION('',(0.,0.,1.));
#889=DIRECTION('',(1.,0.,0.));
#890=DIRECTION('',(1.,0.,0.));
#891=DIRECTION('',(0.,0.,-1.));
#892=DIRECTION('',(0.,-1.,0.));
#893=DIRECTION('',(0.,0.,1.));
#894=DIRECTION('',(1.,0.,0.));
#895=DIRECTION('',(0.,0.,1.));
#896=DIRECTION('',(1.,0.,0.));
#897=DIRECTION('',(0.,-1.,0.));
#898=DIRECTION('',(1.,0.,0.));
#899=DIRECTION('',(0.,-1.,0.));
#900=DIRECTION('',(1.,0.,0.));
#901=DIRECTION('',(1.,0.,0.));
#902=DIRECTION('',(0.,0.,1.));
#903=DIRECTION('',(1.,0.,0.));
#904=DIRECTION('',(1.,0.,0.));
#905=DIRECTION('',(0.,-1.,0.));
#906=DIRECTION('',(1.,0.,0.));
#907=DIRECTION('',(0.,-1.,0.));
#908=DIRECTION('',(1.,0.,0.));
#909=DIRECTION('',(0.,0.,-1.));
#910=DIRECTION('',(0.,0.,-1.));
#911=DIRECTION('',(0.,0.,-1.));
#912=DIRECTION('',(0.,1.,0.));
#913=DIRECTION('',(0.,0.,1.));
#914=DIRECTION('',(0.,0.,-1.));
#915=DIRECTION('',(1.,0.,0.));
#916=DIRECTION('',(0.,0.,-1.));
#917=DIRECTION('',(0.,0.,-1.));
#918=DIRECTION('',(0.,1.,0.));
#919=DIRECTION('',(0.,0.,1.));
#920=DIRECTION('',(0.,1.,0.));
#921=DIRECTION('',(0.,0.,1.));
#922=CARTESIAN_POINT('',(0.,0.,0.));
#923=CARTESIAN_POINT('',(-0.0263681018948555,0.0201072450727225,0.00205213839560747));
#924=CARTESIAN_POINT('',(-0.0263681018948555,0.0201072450727225,0.00205213839560747));
#925=CARTESIAN_POINT('',(-0.0253681018948555,0.0201072450727225,0.00205213839560747));
#926=CARTESIAN_POINT('',(-0.0263681018948555,0.0201072450727225,0.00105213839560747));
#927=CARTESIAN_POINT('',(-0.0253681018948555,0.0201072450727225,0.00205213839560747));
#928=CARTESIAN_POINT('',(-0.0253681018948555,0.0221072450727225,0.00205213839560747));
#929=CARTESIAN_POINT('',(-0.0263681018948555,0.0221072450727225,0.00205213839560747));
#930=CARTESIAN_POINT('',(-0.0263681018948555,0.0221072450727225,0.00105213839560747));
#931=CARTESIAN_POINT('',(-0.0263681018948555,0.0231072450727224,0.00105213839560747));
#932=CARTESIAN_POINT('',(-0.0263681018948555,0.0221072450727225,0.00205213839560747));
#933=CARTESIAN_POINT('',(-0.0263681018948555,0.0231072450727224,0.00205213839560747));
#934=CARTESIAN_POINT('',(-0.0243681018948555,0.0231072450727224,0.00205213839560747));
#935=CARTESIAN_POINT('',(-0.0263681018948555,0.0231072450727224,5.21383956074715E-05));
#936=CARTESIAN_POINT('',(-0.0263681018948555,0.0221072450727225,5.21383956074715E-05));
#937=CARTESIAN_POINT('',(-0.0243681018948555,0.0221072450727225,0.00205213839560747));
#938=CARTESIAN_POINT('',(-0.0243681018948555,0.0221072450727225,0.00434844102710485));
#939=CARTESIAN_POINT('',(-0.0243681018948555,0.0221072450727225,0.00664474365860224));
#940=CARTESIAN_POINT('',(-0.0243681018948555,0.0231072450727224,0.00664474365860224));
#941=CARTESIAN_POINT('',(-0.0253681018948555,0.0221072450727225,0.00664474365860224));
#942=CARTESIAN_POINT('',(-0.0243681018948555,0.0231072450727224,0.00764474365860224));
#943=CARTESIAN_POINT('',(-0.0253681018948555,0.0221072450727225,0.00105213839560747));
#944=CARTESIAN_POINT('',(-0.0321243517100811,0.0221072450727225,5.21383956074715E-05));
#945=CARTESIAN_POINT('',(-0.0378806015253067,0.0221072450727225,5.21383956074715E-05));
#946=CARTESIAN_POINT('',(-0.0378806015253067,0.0221072450727225,0.00105213839560747));
#947=CARTESIAN_POINT('',(-0.0378806015253067,0.0231072450727224,5.21383956074715E-05));
#948=CARTESIAN_POINT('',(-0.0388806015253067,0.0221072450727225,0.00105213839560747));
#949=CARTESIAN_POINT('',(-0.0253681018948555,0.0231072450727224,5.21383956074715E-05));
#950=CARTESIAN_POINT('',(-0.0263681018948555,0.0221072450727225,0.00664474365860224));
#951=CARTESIAN_POINT('',(-0.0263681018948555,0.0221072450727225,0.00864474365860224));
#952=CARTESIAN_POINT('',(-0.0263681018948555,0.0221072450727225,0.00764474365860224));
#953=CARTESIAN_POINT('',(-0.0263681018948555,0.0231072450727224,0.00864474365860224));
#954=CARTESIAN_POINT('',(-0.0263681018948555,0.0231072450727224,0.00664474365860224));
#955=CARTESIAN_POINT('',(-0.0263681018948555,0.0221072450727225,0.00664474365860224));
#956=CARTESIAN_POINT('',(-0.0378806015253067,0.0221072450727225,0.00205213839560747));
#957=CARTESIAN_POINT('',(-0.0398806015253067,0.0221072450727225,0.00205213839560747));
#958=CARTESIAN_POINT('',(-0.0398806015253067,0.0231072450727224,0.00205213839560747));
#959=CARTESIAN_POINT('',(-0.0388806015253067,0.0221072450727225,0.00205213839560747));
#960=CARTESIAN_POINT('',(-0.0378806015253067,0.0221072450727225,0.00205213839560747));
#961=CARTESIAN_POINT('',(-0.0378806015253067,0.0231072450727224,0.00205213839560747));
#962=CARTESIAN_POINT('',(-0.0263681018948555,0.0201072450727225,0.00664474365860224));
#963=CARTESIAN_POINT('',(-0.0263681018948555,0.0201072450727225,0.00664474365860224));
#964=CARTESIAN_POINT('',(-0.0263681018948555,0.0201072450727225,0.00764474365860224));
#965=CARTESIAN_POINT('',(-0.0253681018948555,0.0201072450727225,0.00664474365860224));
#966=CARTESIAN_POINT('',(-0.0263681018948555,0.0201072450727225,0.00764474365860224));
#967=CARTESIAN_POINT('',(-0.0253681018948555,0.0201072450727225,0.00664474365860224));
#968=CARTESIAN_POINT('',(5.06266951554729E-06,0.0221072450727225,0.00864474365860224));
#969=CARTESIAN_POINT('',(-0.0378806015253067,0.0221072450727225,0.00864474365860224));
#970=CARTESIAN_POINT('',(-0.0378806015253067,0.0231072450727224,0.00864474365860224));
#971=CARTESIAN_POINT('',(-0.0378806015253067,0.0221072450727225,0.00764474365860224));
#972=CARTESIAN_POINT('',(5.06266951554729E-06,0.0231072450727224,0.00864474365860224));
#973=CARTESIAN_POINT('',(-0.0321243517100811,0.0221072450727225,0.00764474365860224));
#974=CARTESIAN_POINT('',(-0.0398806015253067,0.0221072450727225,0.0153));
#975=CARTESIAN_POINT('',(-0.0398806015253067,0.0221072450727225,0.00664474365860224));
#976=CARTESIAN_POINT('',(-0.0388806015253067,0.0221072450727225,0.00664474365860224));
#977=CARTESIAN_POINT('',(-0.0398806015253067,0.0231072450727224,0.00664474365860224));
#978=CARTESIAN_POINT('',(-0.0388806015253067,0.0221072450727225,0.00434844102710485));
#979=CARTESIAN_POINT('',(-0.0398806015253067,0.0231072450727224,0.0153));
#980=CARTESIAN_POINT('',(-0.0378806015253067,0.0201072450727225,0.00205213839560747));
#981=CARTESIAN_POINT('',(-0.0378806015253067,0.0201072450727225,0.00205213839560747));
#982=CARTESIAN_POINT('',(-0.0378806015253067,0.0201072450727225,0.00105213839560747));
#983=CARTESIAN_POINT('',(-0.0388806015253067,0.0201072450727225,0.00205213839560747));
#984=CARTESIAN_POINT('',(-0.0378806015253067,0.0201072450727225,0.00105213839560747));
#985=CARTESIAN_POINT('',(-0.0388806015253067,0.0201072450727225,0.00205213839560747));
#986=CARTESIAN_POINT('',(-0.0378806015253067,0.0221072450727225,0.00664474365860224));
#987=CARTESIAN_POINT('',(-0.0378806015253067,0.0221072450727225,0.00664474365860224));
#988=CARTESIAN_POINT('',(-0.0378806015253067,0.0231072450727224,0.00664474365860224));
#989=CARTESIAN_POINT('',(-0.0378806015253067,0.0201072450727225,0.00664474365860224));
#990=CARTESIAN_POINT('',(-0.0378806015253067,0.0231072450727224,0.00764474365860224));
#991=CARTESIAN_POINT('',(-0.0378806015253067,0.0201072450727225,0.00764474365860224));
#992=CARTESIAN_POINT('',(-0.0378806015253067,0.0201072450727225,0.00664474365860224));
#993=CARTESIAN_POINT('',(-0.0388806015253067,0.0201072450727225,0.00664474365860224));
#994=CARTESIAN_POINT('',(-0.0388806015253067,0.0201072450727225,0.00664474365860224));
#995=CARTESIAN_POINT('',(0.0473088134527206,-0.0234617718011141,0.0153));
#996=CARTESIAN_POINT('',(0.0473088134527206,-0.0234617718011141,0.0153));
#997=CARTESIAN_POINT('',(0.0473088134527206,-0.0244617718011141,0.0153));
#998=CARTESIAN_POINT('',(0.0483088134527206,-0.0234617718011141,0.0153));
#999=CARTESIAN_POINT('',(0.0473088134527206,-0.0244617718011141,0.0153));
#1000=CARTESIAN_POINT('',(0.0473088134527206,-0.0244617718011141,-0.006));
#1001=CARTESIAN_POINT('',(0.0473088134527206,-0.0234617718011141,-0.006));
#1002=CARTESIAN_POINT('',(0.0483088134527206,-0.0234617718011141,-0.006));
#1003=CARTESIAN_POINT('',(0.0483088134527206,-0.0234617718011141,-0.007));
#1004=CARTESIAN_POINT('',(0.0473088134527206,-0.0234617718011141,-0.006));
#1005=CARTESIAN_POINT('',(0.0473088134527206,-0.0234617718011141,-0.006));
#1006=CARTESIAN_POINT('',(0.0473088134527206,-0.0234617718011141,-0.007));
#1007=CARTESIAN_POINT('',(0.0473088134527206,-0.0234617718011141,-0.006));
#1008=CARTESIAN_POINT('',(5.06266951554729E-06,-0.0234617718011141,-0.006));
#1009=CARTESIAN_POINT('',(-0.0472986881136895,-0.0234617718011141,-0.006));
#1010=CARTESIAN_POINT('',(-0.0472986881136895,-0.0234617718011141,-0.007));
#1011=CARTESIAN_POINT('',(-0.0472986881136895,-0.0244617718011141,-0.006));
#1012=CARTESIAN_POINT('',(5.06266951554729E-06,-0.0234617718011141,-0.007));
#1013=CARTESIAN_POINT('',(5.06266951554729E-06,-0.0244617718011141,-0.006));
#1014=CARTESIAN_POINT('',(0.0473088134527206,-0.000677263364195824,-0.006));
#1015=CARTESIAN_POINT('',(0.0473088134527206,0.0221072450727225,-0.006));
#1016=CARTESIAN_POINT('',(0.0473088134527206,0.0221072450727225,-0.007));
#1017=CARTESIAN_POINT('',(0.0483088134527206,0.0221072450727225,-0.006));
#1018=CARTESIAN_POINT('',(0.0483088134527206,0.0221072450727225,-0.006));
#1019=CARTESIAN_POINT('',(0.0473088134527206,-0.0244617718011141,-0.007));
#1020=CARTESIAN_POINT('',(-0.0472986881136895,-0.0234617718011141,-0.006));
#1021=CARTESIAN_POINT('',(-0.0472986881136895,-0.0234617718011141,-0.006));
#1022=CARTESIAN_POINT('',(-0.0482986881136895,-0.0234617718011141,-0.006));
#1023=CARTESIAN_POINT('',(-0.0472986881136895,-0.0234617718011141,-0.006));
#1024=CARTESIAN_POINT('',(0.0473088134527206,0.0221072450727225,-0.006));
#1025=CARTESIAN_POINT('',(0.0473088134527206,0.0221072450727225,-0.006));
#1026=CARTESIAN_POINT('',(0.0473088134527206,0.0231072450727224,-0.006));
#1027=CARTESIAN_POINT('',(0.0473088134527206,0.0221072450727225,-0.006));
#1028=CARTESIAN_POINT('',(-0.0472986881136895,-0.0234617718011141,0.0153));
#1029=CARTESIAN_POINT('',(-0.0472986881136895,-0.0234617718011141,0.0153));
#1030=CARTESIAN_POINT('',(-0.0482986881136895,-0.0234617718011141,0.0153));
#1031=CARTESIAN_POINT('',(-0.0472986881136895,-0.0244617718011141,0.0153));
#1032=CARTESIAN_POINT('',(-0.0482986881136895,-0.0234617718011141,0.0153));
#1033=CARTESIAN_POINT('',(-0.0472986881136895,-0.0244617718011141,0.0153));
#1034=CARTESIAN_POINT('',(-0.0472986881136895,-0.000677263364195824,-0.006));
#1035=CARTESIAN_POINT('',(-0.0472986881136895,0.0221072450727225,-0.006));
#1036=CARTESIAN_POINT('',(-0.0482986881136895,0.0221072450727225,-0.006));
#1037=CARTESIAN_POINT('',(-0.0472986881136895,0.0221072450727225,-0.007));
#1038=CARTESIAN_POINT('',(-0.0472986881136895,-0.000677263364195824,-0.007));
#1039=CARTESIAN_POINT('',(-0.0482986881136895,-0.000677263364195824,-0.006));
#1040=CARTESIAN_POINT('',(0.0473088134527206,0.0221072450727225,0.0153));
#1041=CARTESIAN_POINT('',(0.0473088134527206,0.0221072450727225,0.0153));
#1042=CARTESIAN_POINT('',(0.0483088134527206,0.0221072450727225,0.0153));
#1043=CARTESIAN_POINT('',(0.0473088134527206,0.0231072450727224,0.0153));
#1044=CARTESIAN_POINT('',(0.0483088134527206,0.0221072450727225,0.0153));
#1045=CARTESIAN_POINT('',(0.0473088134527206,0.0231072450727224,0.0153));
#1046=CARTESIAN_POINT('',(-0.0472986881136895,0.0221072450727225,-0.006));
#1047=CARTESIAN_POINT('',(-0.0472986881136895,0.0221072450727225,-0.006));
#1048=CARTESIAN_POINT('',(-0.0472986881136895,0.0231072450727224,-0.006));
#1049=CARTESIAN_POINT('',(-0.0472986881136895,0.0221072450727225,-0.006));
#1050=CARTESIAN_POINT('',(-0.0472986881136895,0.0221072450727225,0.0153));
#1051=CARTESIAN_POINT('',(-0.0472986881136895,0.0231072450727224,0.0153));
#1052=CARTESIAN_POINT('',(-0.0472986881136895,0.0231072450727224,0.0153));
#1053=CARTESIAN_POINT('',(-0.0482986881136895,0.0221072450727225,-0.007));
#1054=CARTESIAN_POINT('',(-0.0482986881136895,0.0221072450727225,0.0153));
#1055=CARTESIAN_POINT('',(-0.0472986881136895,0.0221072450727225,0.0153));
#1056=CARTESIAN_POINT('',(5.06266951554729E-06,0.0221072450727225,-0.006));
#1057=CARTESIAN_POINT('',(-0.0482986881136895,0.0231072450727224,-0.006));
#1058=CARTESIAN_POINT('',(0.0483088134527206,0.0221072450727225,-0.007));
#1059=CARTESIAN_POINT('',(-0.0388806015253067,0.0201072450727225,0.00434844102710485));
#1060=CARTESIAN_POINT('',(-0.0388806015253067,0.0201072450727225,0.00434844102710485));
#1061=CARTESIAN_POINT('',(-0.0321243517100811,0.0201072450727225,0.00105213839560747));
#1062=CARTESIAN_POINT('',(-0.0321243517100811,0.0201072450727225,0.00105213839560747));
#1063=CARTESIAN_POINT('',(-0.0253681018948555,0.0201072450727225,0.00434844102710485));
#1064=CARTESIAN_POINT('',(-0.0253681018948555,0.0201072450727225,0.00434844102710485));
#1065=CARTESIAN_POINT('',(-0.0321243517100811,0.0201072450727225,0.00764474365860224));
#1066=CARTESIAN_POINT('',(-0.0321243517100811,0.0201072450727225,0.00764474365860224));
#1067=CARTESIAN_POINT('',(-0.0482986881136895,-0.000677263364195824,0.0153));
#1068=CARTESIAN_POINT('',(-0.0482986881136895,-0.000677263364195824,0.0153));
#1069=CARTESIAN_POINT('',(5.06266951554729E-06,-0.0244617718011141,0.0153));
#1070=CARTESIAN_POINT('',(5.06266951554729E-06,-0.0244617718011141,0.0153));
#1071=CARTESIAN_POINT('',(0.0483088134527206,-0.000677263364195824,0.0153));
#1072=CARTESIAN_POINT('',(0.0483088134527206,-0.000677263364195824,0.0153));
#1073=CARTESIAN_POINT('',(5.06266951554729E-06,-0.000677263364195824,-0.007));
#1074=CARTESIAN_POINT('',(0.,0.,0.0153));
#1075=CARTESIAN_POINT('',(-0.0452986881136895,-0.000677263364195824,0.0153));
#1076=CARTESIAN_POINT('',(-0.0452986881136895,0.0201072450727225,0.0153));
#1077=CARTESIAN_POINT('',(-0.0452986881136895,-0.0214617718011141,0.0153));
#1078=CARTESIAN_POINT('',(5.06266951554729E-06,0.0201072450727225,0.0153));
#1079=CARTESIAN_POINT('',(0.0453088134527206,0.0201072450727225,0.0153));
#1080=CARTESIAN_POINT('',(0.0453088134527206,-0.000677263364195824,0.0153));
#1081=CARTESIAN_POINT('',(0.0453088134527206,-0.0214617718011141,0.0153));
#1082=CARTESIAN_POINT('',(5.06266951554729E-06,-0.0214617718011141,0.0153));
#1083=CARTESIAN_POINT('',(5.06266951554729E-06,0.0231072450727224,0.0153));
#1084=CARTESIAN_POINT('',(5.06266951554729E-06,-0.000677263364195824,-0.004));
#1085=CARTESIAN_POINT('',(5.06266951554729E-06,0.0201072450727225,-0.004));
#1086=CARTESIAN_POINT('',(-0.0452986881136895,0.0201072450727225,-0.004));
#1087=CARTESIAN_POINT('',(0.0453088134527206,0.0201072450727225,-0.004));
#1088=CARTESIAN_POINT('',(-0.0452986881136895,-0.000677263364195824,-0.004));
#1089=CARTESIAN_POINT('',(-0.0452986881136895,-0.0214617718011141,-0.004));
#1090=CARTESIAN_POINT('',(5.06266951554729E-06,-0.0214617718011141,-0.004));
#1091=CARTESIAN_POINT('',(0.0453088134527206,-0.0214617718011141,-0.004));
#1092=CARTESIAN_POINT('',(0.0453088134527206,-0.000677263364195824,-0.004));
#1093=CARTESIAN_POINT('',(0.0453088134527206,-0.000677263364195824,0.0153));
#1094=CARTESIAN_POINT('',(0.0453088134527206,-0.0214617718011141,0.0153));
#1095=CARTESIAN_POINT('',(0.0453088134527206,0.0201072450727225,0.0153));
#1096=CARTESIAN_POINT('',(5.06266951554729E-06,-0.0214617718011141,0.0153));
#1097=CARTESIAN_POINT('',(-0.0452986881136895,-0.0214617718011141,0.0153));
#1098=CARTESIAN_POINT('',(-0.0452986881136895,-0.000677263364195824,0.0153));
#1099=CARTESIAN_POINT('',(-0.0452986881136895,0.0201072450727225,0.0153));
#1100=CARTESIAN_POINT('',(5.06266951554729E-06,0.0201072450727225,0.0153));
#1101=CARTESIAN_POINT('',(5.06266951554729E-06,0.0231072450727224,0.0153));
#1102=MECHANICAL_DESIGN_GEOMETRIC_PRESENTATION_REPRESENTATION('',(#631),#1103);
#1103=(
GEOMETRIC_REPRESENTATION_CONTEXT(3)
GLOBAL_UNCERTAINTY_ASSIGNED_CONTEXT((#1104))
GLOBAL_UNIT_ASSIGNED_CONTEXT((#1107,#1106,#1105))
REPRESENTATION_CONTEXT('bottom','TOP_LEVEL_ASSEMBLY_PART')
);
#1104=UNCERTAINTY_MEASURE_WITH_UNIT(LENGTH_MEASURE(1.E-06),#1107,'DISTANCE_ACCURACY_VALUE','Maximum Tolerance applied to model');
#1105=(
NAMED_UNIT(*)
SI_UNIT($,.STERADIAN.)
SOLID_ANGLE_UNIT()
);
#1106=(
NAMED_UNIT(*)
PLANE_ANGLE_UNIT()
SI_UNIT($,.RADIAN.)
);
#1107=(
LENGTH_UNIT()
NAMED_UNIT(*)
SI_UNIT($,.METRE.)
);
#1108=PRODUCT_DEFINITION_SHAPE('','',#1109);
#1109=PRODUCT_DEFINITION('','',#1111,#1110);
#1110=PRODUCT_DEFINITION_CONTEXT('',#1117,'design');
#1111=PRODUCT_DEFINITION_FORMATION_WITH_SPECIFIED_SOURCE('','',#1113,.NOT_KNOWN.);
#1112=PRODUCT_RELATED_PRODUCT_CATEGORY('','',(#1113));
#1113=PRODUCT('bottom','bottom','bottom',(#1115));
#1114=PRODUCT_CATEGORY('','');
#1115=PRODUCT_CONTEXT('',#1117,'mechanical');
#1116=APPLICATION_PROTOCOL_DEFINITION('international standard','ap242_managed_model_based_3d_engineering',2020,#1117);
#1117=APPLICATION_CONTEXT('managed model based 3d engineering');
ENDSEC;
END-ISO-10303-21;
